<mxfile host="65bd71144e">
    <diagram id="Ep8SLqola7XHJE_XOTDy" name="Page-1">
        <mxGraphModel dx="611" dy="320" grid="1" gridSize="10" guides="1" tooltips="1" connect="1" arrows="1" fold="1" page="1" pageScale="1" pageWidth="827" pageHeight="1169" math="0" shadow="0">
            <root>
                <mxCell id="0"/>
                <mxCell id="1" parent="0"/>
                <mxCell id="3" value="" style="fontColor=#0066CC;verticalAlign=top;verticalLabelPosition=bottom;labelPosition=center;align=center;html=1;outlineConnect=0;fillColor=#CCCCCC;strokeColor=#6881B3;gradientColor=none;gradientDirection=north;strokeWidth=2;shape=mxgraph.networks.pc;" vertex="1" parent="1">
                    <mxGeometry x="10" y="840" width="100" height="70" as="geometry"/>
                </mxCell>
                <mxCell id="4" value="" style="shape=singleArrow;whiteSpace=wrap;html=1;" vertex="1" parent="1">
                    <mxGeometry x="127.25" y="860" width="40" height="30" as="geometry"/>
                </mxCell>
                <mxCell id="5" value="&lt;font color=&quot;#000000&quot;&gt;Github&lt;/font&gt;" style="verticalLabelPosition=bottom;html=1;verticalAlign=top;align=center;shape=mxgraph.azure.github_code;pointerEvents=1;" vertex="1" parent="1">
                    <mxGeometry x="177.25" y="850" width="50" height="50" as="geometry"/>
                </mxCell>
                <mxCell id="6" value="" style="shape=singleArrow;whiteSpace=wrap;html=1;" vertex="1" parent="1">
                    <mxGeometry x="237.25" y="860" width="40" height="30" as="geometry"/>
                </mxCell>
                <mxCell id="7" value="CirecleCI" style="ellipse;whiteSpace=wrap;html=1;aspect=fixed;align=center;" vertex="1" parent="1">
                    <mxGeometry x="287.25" y="845" width="60" height="60" as="geometry"/>
                </mxCell>
                <mxCell id="8" value="ECR" style="outlineConnect=0;dashed=0;verticalLabelPosition=bottom;verticalAlign=top;align=center;html=1;shape=mxgraph.aws3.ecr;fillColor=#F58534;gradientColor=none;fontColor=#000000;" vertex="1" parent="1">
                    <mxGeometry x="290.5" y="730" width="54.5" height="50" as="geometry"/>
                </mxCell>
                <mxCell id="9" value="" style="shape=singleArrow;direction=north;whiteSpace=wrap;html=1;align=center;arrowWidth=0.13333333333333333;arrowSize=0.35;" vertex="1" parent="1">
                    <mxGeometry x="304.75" y="800" width="25" height="40" as="geometry"/>
                </mxCell>
                <mxCell id="10" value="MySql" style="points=[[0,0,0],[0.25,0,0],[0.5,0,0],[0.75,0,0],[1,0,0],[0,1,0],[0.25,1,0],[0.5,1,0],[0.75,1,0],[1,1,0],[0,0.25,0],[0,0.5,0],[0,0.75,0],[1,0.25,0],[1,0.5,0],[1,0.75,0]];outlineConnect=0;gradientColor=#4D72F3;gradientDirection=north;fillColor=#3334B9;strokeColor=#ffffff;dashed=0;verticalLabelPosition=bottom;verticalAlign=top;align=center;html=1;fontSize=12;fontStyle=0;aspect=fixed;shape=mxgraph.aws4.resourceIcon;resIcon=mxgraph.aws4.rds;fontColor=#000000;" vertex="1" parent="1">
                    <mxGeometry x="295" y="630" width="50" height="50" as="geometry"/>
                </mxCell>
                <mxCell id="11" value="Private subnet" style="outlineConnect=0;html=1;whiteSpace=wrap;fontSize=12;fontStyle=0;shape=mxgraph.aws4.group;grIcon=mxgraph.aws4.group_vpc;strokeColor=#001DBC;verticalAlign=top;align=left;spacingLeft=30;dashed=0;fillColor=none;fontColor=#000000;" vertex="1" parent="1">
                    <mxGeometry x="157.75" y="600" width="320" height="100" as="geometry"/>
                </mxCell>
                <mxCell id="12" value="&lt;font color=&quot;#000000&quot;&gt;Public Subnet&lt;/font&gt;" style="outlineConnect=0;html=1;whiteSpace=wrap;fontSize=12;fontStyle=0;shape=mxgraph.aws4.group;grIcon=mxgraph.aws4.group_vpc;verticalAlign=top;align=left;spacingLeft=30;dashed=0;fontColor=#ffffff;strokeColor=#005700;fillColor=none;" vertex="1" parent="1">
                    <mxGeometry x="80" y="370" width="480" height="190" as="geometry"/>
                </mxCell>
                <mxCell id="16" value="Fargate" style="outlineConnect=0;gradientColor=none;html=1;whiteSpace=wrap;fontSize=12;fontStyle=0;shape=mxgraph.aws4.group;grIcon=mxgraph.aws4.group_vpc;strokeColor=#879196;fillColor=none;verticalAlign=top;align=left;spacingLeft=30;fontColor=#879196;dashed=0;" vertex="1" parent="1">
                    <mxGeometry x="127.25" y="420" width="120" height="120" as="geometry"/>
                </mxCell>
                <mxCell id="17" value="" style="points=[[0,0,0],[0.25,0,0],[0.5,0,0],[0.75,0,0],[1,0,0],[0,1,0],[0.25,1,0],[0.5,1,0],[0.75,1,0],[1,1,0],[0,0.25,0],[0,0.5,0],[0,0.75,0],[1,0.25,0],[1,0.5,0],[1,0.75,0]];outlineConnect=0;fontColor=#232F3E;gradientColor=#F78E04;gradientDirection=north;fillColor=#D05C17;strokeColor=#ffffff;dashed=0;verticalLabelPosition=bottom;verticalAlign=top;align=center;html=1;fontSize=12;fontStyle=0;aspect=fixed;shape=mxgraph.aws4.resourceIcon;resIcon=mxgraph.aws4.fargate;" vertex="1" parent="1">
                    <mxGeometry x="127.25" y="420" width="30" height="30" as="geometry"/>
                </mxCell>
                <mxCell id="18" value="Fargate" style="outlineConnect=0;gradientColor=none;html=1;whiteSpace=wrap;fontSize=12;fontStyle=0;shape=mxgraph.aws4.group;grIcon=mxgraph.aws4.group_vpc;strokeColor=#879196;fillColor=none;verticalAlign=top;align=left;spacingLeft=30;fontColor=#879196;dashed=0;" vertex="1" parent="1">
                    <mxGeometry x="367.25" y="420" width="120" height="120" as="geometry"/>
                </mxCell>
                <mxCell id="19" value="" style="points=[[0,0,0],[0.25,0,0],[0.5,0,0],[0.75,0,0],[1,0,0],[0,1,0],[0.25,1,0],[0.5,1,0],[0.75,1,0],[1,1,0],[0,0.25,0],[0,0.5,0],[0,0.75,0],[1,0.25,0],[1,0.5,0],[1,0.75,0]];outlineConnect=0;fontColor=#232F3E;gradientColor=#F78E04;gradientDirection=north;fillColor=#D05C17;strokeColor=#ffffff;dashed=0;verticalLabelPosition=bottom;verticalAlign=top;align=center;html=1;fontSize=12;fontStyle=0;aspect=fixed;shape=mxgraph.aws4.resourceIcon;resIcon=mxgraph.aws4.fargate;" vertex="1" parent="1">
                    <mxGeometry x="367.25" y="420" width="30" height="30" as="geometry"/>
                </mxCell>
                <mxCell id="20" style="edgeStyle=orthogonalEdgeStyle;rounded=0;orthogonalLoop=1;jettySize=auto;html=1;exitX=1;exitY=0.25;exitDx=0;exitDy=0;exitPerimeter=0;entryX=1;entryY=0;entryDx=0;entryDy=0;entryPerimeter=0;fontColor=#FF3333;" edge="1" parent="1" source="19" target="19">
                    <mxGeometry relative="1" as="geometry"/>
                </mxCell>
                <mxCell id="23" value="" style="shape=image;verticalLabelPosition=bottom;labelBackgroundColor=#ffffff;verticalAlign=top;aspect=fixed;imageAspect=0;image=data:image/png,iVBORw0KGgoAAAANSUhEUgAAAMgAAADICAIAAAAiOjnJAAAABGdBTUEAALGPC/xhBQAAACBjSFJNAAB6JgAAgIQAAPoAAACA6AAAdTAAAOpgAAA6mAAAF3CculE8AAAABmJLR0QA/wD/AP+gvaeTAAAACXBIWXMAAAsTAAALEwEAmpwYAAAAB3RJTUUH4wkREA8q+bTnbgAANWNJREFUeNrtXXecFEXafqu6p6cn7czmJeySJAoIKMklCwIiKBI8UeTO8zwBFTCidyd6x+mdd55gwCxiOAMnyhmRaARBJIkEySgb2GVmdlKnqvr+qJlmdlmWReld/K6fnz/c6emuqfB01VtvKsQYAxs2zjRwY1fAxv9P2MSyYQlsYtmwBDaxbFgCm1g2LIFNLBuWwCaWDUtgE8uGJbCJZcMS2MSyYQlsYtmwBDaxbFgCm1g2LIFNLBuWwCaWDUtgE8uGJbCJZcMS2MSyYQlsYtmwBDaxbFgCm1g2LIFNLBuWwCaWDUtgE8uGJbCJZcMS2MSyYQlsYtmwBDaxbFgCm1g2LIFNLBuWwCaWDUtgE8uGJbCJZcMS2MSyYQlsYtmwBDaxbFgCm1g2LIFNLBuWwCaWDUtgE8uGJbCJZcMS2MSyYQlsYtmwBDaxbFgCm1g2LIFNLBuWwCaWDUtgE8uGJbCJZcMS2MSyYQlsYtmwBDaxbFgCm1g2LEFDE4sx1thNttEQQI040pRSAEAIIYQaux9snGE0KLHM37KZ9P8eDbQU8snp4MGDI0eOfOSRR/jFVatW/eMf/6iqqgJ7ifx/B8uJxRgjhHBiJRKJL7/88vvvv+dfPfvss3feeeeuXbsgRSxKKb+ZEJJONf7RLKrGtzUe5OC/mF6B9Is2rIZoaemMMYSQIAimOOXxeJxOJ/927ty5v/3tb3v06AEAGGPz3xqPA4AgCPyK+Uf6t4yxGg+m33PiU2CvxdbDQmLxgS8tLV22bNnRo0f79OlTUFAAqWURABKJBGMsHo/7fD4AUBRly5YtmzZtikajzZo1u+iii/Ly8gCAEPL+++937do1Pz//nXfeKSkpadq06cUXX5yVlWWyZMuWLatXr47FYm3atPH5fOFwuEWLFsXFxQghVVU/+eST7777ThTFPn36XHDBBY3d5/8bYNaAr1bfffddz549A4FA69atW7ZsefXVVxcVFd100038nt///vcej2f79u3840MPPeT3+zt16tStW7fs7OzevXvv3r2bMRaJRIqKiiZNmjR8+PDmzZu3bNkyEAhcdNFFZWVl/MGnnnoqPz9/+PDh1113XZs2bfLz83v27Pnkk08yxkpKSsaOHZuVldW6devCwsLc3Nw5c+ZY1GQb6bCKWBy//vWvfT7fvHnzEonE3r17x40b5/P5Zs6cyb+dMWNGQUHBzp07+cetW7e+++67sViMMfbss896PJ65c+cyxsLhcLdu3XJycu66665gMBgMBqdNm+Z2u5955hnGWFlZWevWrUePHq1pGmNs8eLFOTk5ixYt4mXOnDnT4/HMmzcvFouVlpZed911Xq/3tddeYynq27AIlgjvjDEAKC0t/eyzz7p37z516lRZllu3bn377beLoshScrdZCQAghHTp0uXSSy/lEljv3r29Xm9ZWRkAYIxVVS0sLLz77rsDgUAgEBg/frzT6fzxxx8BoLy8vKqqqnv37g6HAwC6du0qSdLu3bv5V++9917v3r2nT5/udrvz8/Nnz56dkZGxZMkSOEGes3FmYYmMxRhDCAWDwWg02rFjR0mSDMMQRbGwsNDlcqVvzUySCYKwZs2aF154Ye/evaqqappGCDFFbF3XzznnHJ/PRwgRBMHpdGKM+bdFRUVNmjRZvXr1jBkzsrKyVqxYEQwG27RpAwBHjx6NRCLt27cXRZE/WFhY2KRJkx9++EHTNEmSWEr8t3HGYe2uECGUPjHUqmTnPFuzZs2kSZOaNWs2bdq0Dh06VFRUXH/99ay6TiH9WZMTGRkZ8+fPv+GGGwYMGFBQULB79+7f/OY3V155JdhzUqPCEmLxIQ8EArIs79q1yzAMvuE/cuSIoii1jvdHH30Ui8UefPDBoUOHAsDXX3+dPmOZxbLadPfhcDgnJ+eOO+7wer3t2rVr2bIlJ2tBQYHf79+5cyefLwHg8OHDpaWlffr0kSQJbKWDlbDkneYD1qRJk+Li4q+//vqZZ57RNO3QoUP//Oc/VVVN1yqZcLvdhBAuGx0+fPjvf/+7eSef9tJJgFLgH9966y2uoSgsLKyoqPj2228NwwCAzMzMK664Yv369fPnz49Go2VlZX/7299CodAVV1wBaVoPG1bAqqWQUooxvvvuu3fu3PmHP/zh4YcfJoSMGzeuadOm3IYD1XWVY8eOXbx48Zw5c55//vlwODx+/Pj27duHQiF+WzweVxTFLJwQEo/HNU3jH0eOHPn++++PHDmSExFjPHjw4CeeeCI7O/uOO+44dOjQAw888MQTTxiGoSjKjBkzrrrqKrAXSothFbEwxoyxc88997333lu2bFllZWX37t0HDx586aWXejweLiHxeYgTq0uXLkuWLFm5cmUsFuvevfuQIUPWrVvHi5JlecGCBRkZGZBiYYcOHV566aW2bdsCwLvvvvvAAw/ceOONffv2JYQAwIoVK1566aUlS5b87ne/CwQCixYt+uyzz7Zu3SoIQt++fc8///zG7vP/DViqzKCU1vqR/zFt2rT8/PwdO3YwxgzDqOPBOjBixIji4mJ+Py9k69at+fn5jzzyCL9yYh3qX7iNnwzLd4WMMUopn2n4R03Tli9fXlFRsWrVqqysLG7nwRjz8YaUUMVlIL5gcUHeXLwYY/yKIAgtW7ZcunTpG2+80atXL0LIgQMHHn74YbfbPXz4cEjNcLwolpomG/td/p+AtcQCAD78/G8+tAihhx56aMeOHVxjGQgEzOvpD6YzoIa8jxAyFa333ntvLBa75557XC4XABBCOnfu/Oqrr3bs2JGljNP27q/h0TgepCUlJZWVlU2bNs3KyjojBZaXl5eVlSGEmjRpkp2dDWmKrjMFwzDC4TAv3MYp0ZiuyXAmhp+d4AbD1/gzvuRpmlZSUtKiRYvG6KdfHqxcCk/OWT72fPkz70pS4zR5ZrpkpTMsvdifCZRWpXqSlTHGUv5nx1vEGKS/BmfH6mydkGAlsU5e67rbwxhLH856/tRZIUgxlqzKiUpgzvjGrmCDwUJi6YqiqyqwU3cnQghhLIii6HSaFKGMGbrOP7DTebcYY0RVKSE/twEMACFBcmCHAyPENRemf3PNxZdSweEQMGaMhcvKD2zaVLL7+3BZWSISMVQVYSw6na4Mny87J6ewsGnH9lnNmgGfUhuPawhjyeUSRGvMelbIWHyZe+WOuza++54vJ5saRp39xxAgJAqCJDncbk92dm7LFi26ndfmggsymzatqKiQRVEUhHpOYFgQEpHI/MvHMUKwQ+SDl665qD+wIEQrK7uOHDHxwb/qqmoYRigUys3NrdFjfH51ZWSEy8vXvrn424+XJ44Fs5s3z2lRFCjId/v9otMJDHRVUaoiwbKykr17lVBYjcV+Zg/Dz1vIEMbRY8cmP/yPHqMuoYTg2uxsPwcWzljxUGjY9Kkjb5oeCwYxFk5GLcYY0XUtnoiFgqHSsspDh8r27lv30qsr5j3Wqvt5Lfv3v/CyMWL93ipOaIEQSshtSxb7srMNTdMNIxwOU0qzsrK4z1Z9QAnxZmUtf/qZ/V9vdMsyyLKmaYlEghsAqv8qAIJ1by5e9viC7MLmQ6Zc22nwoIycnFqqB4AAfiwpkUXBJTmPXzodMMZEUTxafhQAcvNyDcM4PXoxAASMUoqFhdNvigWDpz2u9YOFxEIYezMzEUJuv78+L0ROi6IW5x3vvvJ9+zb+972V8+Z/88biCffPadaxAyUEYcwF8zp6kzEmOES33+/0eMDh8EgSFUUEkJGZaRiGo34c5Supy+tFafMcqy6AM0oRxmoi/tLMW0v27Jk4988dB/TnYhYAsJR+HxhDCBFCVE3zeDzUMLzZ2VjADuGndD5vu1vXAcDp9Uo/aVutappTktw+388Y3lPA2l0hb3M8Hvd4vXwk+CvK0u4x++u45IsQwjivdetLZs049/IxW956+/GrJ1929119JoxnlMKp5HQECBgwxjRd5/dRQviCZei6oWmyLJ9y+aeU4lRwUc3yU/tQhLESjT529bVZzZre89EHoiQxyhijnPpYENJrSTH2Op0AwCgFSgVBiMdisstl2hjqyQ7GGBIEahjJj5TCCXvMJPVrPJjqeSWR4CsAJcQ6Ec9izTtjAOB0OhVFkWUZYczbUXdrKCGQ8sbHonjp7beeN/SiJ397PdGN4km/4vNEXc8jAABFUdyBAKTZiADAJcsMIaiPtxBjAIAF4WQk5ldfmH5zTovC3zw6n1uuMMZAEW8mYywWDIXLyhJVVbphZDdtkpGTI/t8ktuNBQELglOWE/G4y+X6CfKNmAqhQ9Xpm7xYW535JQbg8niAUgAQRDH9HT+zsNykAwCCICCECMDBr79e9cxzWBAQFpCAMca8iyWXy5MZyG7evGW3bnmtW2FB4C8dwhgY0xKJFt3Om/biwieu/XWzjh1adu92Cm4xYIxJksRHFxASHI4vX3+jcucuPttpqgoMsIABkgoCbpquVgYhoiTt37S5eccOJ/4C59CnL70cLiu/8YXneTkYY16xWDD4yaKXd3z6adXRCofT6XA6EUJKLEYMw5+XK2dldejTu/OQwXmtWrndHoTRN+9/8NXi/4iyDJSdcqQZAEZI1VQAkGWXlkicO2TwgGsnmzoaXVHevPe+WDCYPo0hAIQQoZRSJooCY0x0OL775NNOgwZZNOgNQSwAwBhjhPZv2frjzp3Dp09TYjFGGaOUEkIJUePxcFn5gU2bP3z0cVeG7/zRo/tPvtrpdvNRx4LAKC3q0nnEzTctnnPfHf9952Ss4h2pqApUNy8KDseWZR9nuN2dhw1VolFBEAGBruuyLHOpCQBhQUguFQiAAUIIi2KbXj2bdezIC+EB1nz8MMa6oq5+YeGVc/+CBcx3VZxVOz799NW77inq0nnYjb8v7NpFlGW3xwMIEV2PBYMl33//7Wef7/5y7WcvveLNzu48ZHC3USM/mP/oOb16tuzWTUsk6iMwYYwjkQilNL9Zs/VL/7t99ZoB1042jRi6qn699L+X3DrTG8hklPDpyyBEVRSn02mqjhFC7foVF/XoBvwF/oUSi8Mpy4VduvS9cuLJphw1Ftv95do1C19c+8abU+b9q6hrl6QKG2MAGPSbKev+85/NH33UbcSI5LpTHQxA13VRFBFGNd58UZJ6XDqq75UTf9rWWlXVaCRKKQ2FQhk+nyCKm5ct82XndOhXDAAmq/Z8tX7hLTMnPfhAt5EjGGOEUtGM4RZFSZYzmzbN6dIlMyODKur2NWs2f7Rs9fMv+HJyxt83RxRFU/A/JapiMUpIICNDicV3fvopQDV9sjcnu9+vrpT8/riqcolUEkTHCd1lGEZCUcAa/XuDEgsBaIqiE4IoxdW0QejYsUpBFEWHo9NFQ7oMG/rpy688MeU3M9/4txQI8DeME+KCMaM3/ve9biNGnNgXjDElkZDdbkMUa2zjEQCj1FBVSG33eG+qmsYolWW5LmUeQhhjTdO8Pq9BDEmSFFX1iOLuL77s0L9fsmIYI4ypYbz2hz+OvefubiNH6Jqm67ogivFoFGPscrsFQWAAiDElEmFer9Pr6T7qkh6Xjqo4dCgeDguCEI1EXC4Xd5Csow8ZY4IoqrEYJQQyMgxdo6TmDoMRQghBlJJ4vKqqyu/3C06n6HSml4wQIobBNwFn3GAPDUwsroNxCEJcUVwuF0rzr5KcTp/PxxgLh0MY4QGTr4mHwq/edfdVCx5Pd33pPHjw2jcWa4mE5HKlv9+MMUVRHJKE4KRSCv85LtXxK7Isa5qmaposy3XXXFEUQRAMw9A13evzAkD5/gNdhw/jQ0QpwwLa/NEy2ePpO3GCoesGIYRSomm6YciyXFVV5Xa7ecjk8VZTChjnFBXxj26PR1VVp9NZ94TKUruKtEad2GCEscAJHYvH/YFA8mr1mwRRhJRp9YyPdeNk9HM6nQlFOfHVxBhnZmYhhGKx2PDpU9VobPuqVQ6Hw+RQTssWgiiW79tvFgUpVkmSVE89ajokSeIBsSe7QVGUiooKrodUVdXlcomiqClKPBTKKSyCpJUaAGDfxm/a9e0DALquY4wJIT6fTxRFp9MZCATi8XiN9vItp2mxxhg7nU5VVc9MlAcCAEikNAsN78PS0MTirwYPOlVq4xYA+DIylEQCYdyxf7+9X65L/8rhdPrz88r27YumDYCmaU6nk+e0ORYKUUYBTmMfLUkSJ02N65qmhUIhXdcRQnl5eV6v1+l0OmUnAFDD0FVV9nkBjr/vSiTi9PoAwOVyqarqdrt5OabnqpFSPlXrEITMOezMcIsBADDKdEIkh6OxPGYb51cZYzW4ZfolAwBCiMf95bduHausTF4yZzuPJxYKUUp5wHQ4HCaEGIahaZqqqoau/4T6cG6ZgUCEkHA4zNPgUEa9Xq8gCDUEFIwxrU4UQXJoiQT/ms9YNZpczx3fz+UWAgCmKIpDEIS0hAYNjAaVsdIajyDViYqiuFwuh8MRjUZNS5wkSTqAO+A3lOREwo0pXPtADaIbeiRcxQAcDgdPB4K4AwJjqN4GwXTwPACKohBCNE3jIlE4HHY4HGZCr+O9JkmSxx2pqMwuLDSNBxl5+Uf37QMAxpjL5QqFQi6Xi9sReKRaPVdqk1s8k8DpNoSbkSSnxD9YP5a1o5GIlYLJLUmSYtUN/giAGgYW0yRZhACA6IYgOVyyyy2IssuVPg1QSsNVVT/5HSWERCIRURQDgQBCKBKJYIzdbneNyYYxJjgcvpyc0r17W3bvBgAGIQih80eNfPzaXwePlGQ2bSJg7PV6Q6GQoig8ELwW6/WpuuWncYvPu0k1XuP5qDV+yArGWJKkiooKLpRwWmiaJgKEy49KHjcAQJqXSCJSFcjLkx0OURSTwm8KCCAzEEiOxOl0KXeJUVU1JyfH5/Ppuh6PxymlPCNcjSWMy9pN27U7sGkzf9YwDMxYQdu25w4a9Nrse/htksMRCAQkSXK73X6//7Sddk5/TeTmUUmSEG5kj3M4G4gFAAght9vNowKTIWK6DgAHt24NFBam35mIRIJHjmS2KMIA3AcGpeEULyjv6zQiAgCltKqqKhKJeDwePqmIoqiqajQS8fv96XceLwEAALoMvWj32rVKPE4Zk2UZIwQAE+6fo6nKk9ddryUSXCQXMP4Je9Xk2JwOtxiliqJIDocgCMAANbaz6llBLEgJ7HxrVlVV5fZ6w2Vl+7/Z1HnYUD5Z8Xli7/oNss/X9JxzfkpTU6uDCVXTorGYy+3OzMw0aWoQAgjl5ObqxEhPEsGNPJBSRJ3Tu5cnM3PtG286nc6kwZExUZKmv/Si7PH8dfglW5Z9DAD8EZa2NTm9Op+SWyy53nFxInnlLEAjy1jVqiKKwFhpSYnL7XY5nf++/y/tLuzboksXTVW5kQsA1i3+T+chgzHGp2uZYZQmolEASEQigiDouh6JRByS5HG7jXhcp4wBQwhRSkPBkD/g1yhTVIVR5pSdwABhpKlaPBRKeL2UUmDM4XL1vXLiR/Me7XnZGG9WljnXipL0m8fmb/zvu+888Lc1Lyzsc83V548cwblYqxnqlKhb3kIIKKUEQHI6k+ajs8OvvoGJhUz7zHHBBSFgTFPVYDAoSlJekyaU0jf/NKd0z57b3lpcWVWFvF5gDGG8Z+PGfd9sGn/fHDhNuyml1B0IfPTo45//+3VNUTDGjFEGIIqioemAji8cPGgbYQSMmbU1HbAopYIgAAJGGQCIkiNYWrr8qafH3nN3qilJhef5Y0Z3vXjYF6+9/vEj8z97/oXiSVedP2a0JMvARbTTnL3q5halVAAAbjJq2OGsAw1MLMYdibhxLf2LnNxcAIiHw5uW/nf5M88KDmn6S4tkn48cO8YXGlXTFv/pvkFTJgcK8k/x6rO0fwEAQFeUCXP+lOH2BENBQkiGL4O7IiVVl6LIqRM8FvR6vZJTopQiQAwYRlg3dF3X3W63pmpl5WVFRUWaqhnE4BZGQRT5Mme+J1zUY5SKTueg3/z6vNGXfrdy1bo3F3+84Knzx1w68NrJss/H36XTihAxuSVJUrrjhqZpx3XryTiztF44ldnR/OMXZSs8oa4YCz/u2PHVW0uUaJQaBtENouuGoWvxRNXRo8d++CFYUurPzxt47eQ+E8brhDA+fyAEAC/dMjOQm3Px9GlwyrCIdGdCM8xQFJlLzs0okk4iSkdjsZxmTZ1cTEmDC4BQygBEF/EautPnwy5DOpU8jlK2ZMHp7D3uiuIrJ+5dv2HNokV/v3RMUc+eE/5wj1SQD9yf9nS4JcsyV/uZ3i/HSXZ8BUj7X92utukvw5nGmSFWja1T8lVO23kBABYEf5MCStmKZ57llmBBFLEgCg7R4XS6/f4OAwd0vXhY03btkgsKIdFEQpAknZDX77jrh+3b7/jvOwBADAOd/LgAQRAoodzAb1YsHo8Tw5AyMxGlmqpC2pLBAASMo9GoYRiuQEBT1fSvzH7XNE3TNCUWi4RCsizrhBz/ttbxY4AwEkSRGIah64IgtO55QZtePfdv2vz6n+59cMQll8++s+/ECQghQ9dPS1gURTGRSFBKub4KY4Gvy5QQ4Gc1EArAKCWQ8smG1BKfXg53w2epzMLmt2fKBHRmiHXs2LFoNMrrxL3XJbc7kUiEQqGj4XA8GORBEL7WrX794vN8HTy+4cIYYyw6nRhjNRb74YcfeB85XS7B6dyzceMXTz6NMb7y0XkRTas8cKCOYeCEjgWDhJCysrJwIqHE45LTGYlE/FlZiTSfmXQYmsYEQXLJEWKkL6DH9ReMIknSKUUeD5NlBSF2wg+fWKwWi6vRaCIWc3A7JiEA4CkqnPDovO/XfLJ64Yufv/b6RbNmFHXrFg+FUPWUhXU0kL91sVgMI1QZqQoGgwk1UXr0qBaPA0Kp5tMjJSVeVVUSiUQiYRhGjbybvBxKqWEYkUjELBZj3LRp0zPCrTNDrKysrMzMzOO1ZkwQRZfLFQgEcv1+w+1OsiF9z83SZIHU3JaRlQWpM05K9+xd9vTD365a3euKsaNvu9UhO+uYq8xfFgQh5nILghjwB0SP25/h8/kygqHQ1uXLw/v2GwZJn6y4P2AsGnV73MikC5d+APhKzZIKClBVVUkovowMjBDlfsC1IklF1rZvn+4jhiuESKKYrDRX8Eajw66dfPHkaz567InFt915xR/v6TX28vrPW4wxwzCCwSDRjWxfRmZmoEx2FeTmEsPgM1ZUdgkCbtqkiTcrKxGPV0Ui+fn5tSZ05QFtgUDg7J2xakS4m5splLIJ1r+6/O356NHHv3zjzQ7FF0781z+69uvHPZhPGbObnNgp9+2mAb+fXxGdzi9fewNi8XMu7KPF4whhAIYQNnRd13W3x6NEomYhGGOMEQCilADCDlE0DIMycDplYhCuqpAkyeRfzToAIIQoM1Y/98KaZ59vP3jgwGuuycjNScaBYYwxJgZxys5Rt848p3fPF2+ZpScSxZOuOnWQCABjjLvuSJKkMdN8iiDNQwsLmPtjQVowCK5tRhRS3wpnOloVrA7/Su8RhFAsGCzbtw8QEgQRi0LyX1FEGHuzs2WPxwwCE2RZdEqTHvpbSVkZ0XWHw8Hd8epeLyiliqbFojGEkdfrhbT9jkOW+/3qyj4TJ6QrwHQA8QRyGIwpxKCESA7JmQorAgDdMKri8ex6m/wMVdu2YuWnr7yy6d33ug4bNuT66zJyc7nSAgkYAIhhtC8uvvGFZxdMuS6refOOA/rXvdvlbmfJyC2u+ADQde14b/+v7ArT20ApEoTtaz55/Z4/8tBTM74QYawrqkN2Tl34vCcQoIypijLshuu3LVu28pnnzps4nsfoORyOZAxZbV3AGEskEqqqerxef8CPTBUUAP+XEqIpCgBQIylmBYNBj9vtcLlqyh+EGLFYOBxu2rSpahiEEKcsC4JANC1aWZnp8QCAqqqMsTp8mhGAIDm6jxp5zoB+Jd/t+OSFhf8aP/HCKycOveF3DpeLEQIOBxftW5x33oQ/3/f6H/40+4N3XT7fycY46SLrcHBimQu30+lM+uf8v9wV1hNqLNahX/ENzz6txmKUUEoMYhBi6KIkvXL7ne/9819Xzv2zoig8WPmyu+58ccbMgp7nZ3brBgDc5Fwrt1RV5a6S3NZrsNo7K3lynShgQQiFQi63W3a7IRlel3abILgZ0w3DIUkGIW6vN7maiCIWRT7budxuTdN0wzjRo8YEn30JIa16dG/Xu9feDV8v/dvftyz7eNAtN+cPGZycmEWREnrBmNEb3n5n9XPPXzJrZq3E4isgZ1WtN/B9oHA2ZcFs4KokvSUlt9uV4fNkZmbk5gQKCnzZ2VfO/fO25Su+X7/e7XaLosgobdOrZ9u+fZfPe1RAiMevCoIgSVK63ynPsqcoitfr9aYYULf6GSFUVVUliqLp4VnrTbquc8fUk73NJ/M7rfljXBfKWJueF8z6z5tdhw1dfNvtBzZ+Y1o/efFDrv/tNx98SA0DY1xj/TJXwFqN2YyBIAgYQFWUpD3x7LAVNjCxWO0uBoRkNWtWfM3VS//6IADvbAQAY+68vWLnrn18GFL6QO7ZRymNRqPRaFSWZb/fXy8PAgYAEI1GGWNcAjsZeK4i7g5fx2314RZP0YwQooQySoffNH3w1Bufn35z1dGjXInKidumV08E6MCWrVBz61xtBawFSR0+SE6nwmtydph1GmnyRNWBsaIoF0+fSgzyyYuLEEI8bXagoOCCCeP/c/9f+CP8UVEUdV0vLy9HCAUCgToWo2pgjIc+67ru9/vruJFSyo9wgnrEINTBLcMwqqqqVFWNxWKRSARhhDBmhPa+elLL83t89OjjvFZJtwiHo6DtOYe3bQMA06c5nVUn1oSlXlHeL6IgOCVJ1fVkiujGnrgaf1Xm3SdgLGA8bs6flj/1TLiszMyoccFVV6pK4tNFL/OcItwjDwBycnLEejt082j9RCKhMlo3qwzD0HW9vmQFgJNwizHGQ77cbndGRoYgCJFIhJu3tXj8ot9dv/Ozz9R4PGn54Tq8vNxIRUVEUcyYC14TU1pPL59/VLk3TspGLgiC0+FQVZUB+1/3xzJfSockMUrP6dWzfb8Ll8x9wPxWkuXxc+5d/uRTwZIShHEoFJJl2ev1cpnjZHE+tf6QrutOVJdGzWTV6e6SasRiAEA8HpdlWUzZtfhJQYQQQMjQ9YJz2ohOZ9nefcmaAQCA0+3RYnFGaSQSiUQi5eXl0Wg0FouFq6Oqqopfj0ajqqalO4mY+0RgkApVarR5qzGJVTMekB+qc/fsfRs37vz8C4QxMFCi0Y7FF547eNBb9/8FALxeLw9MYLXJ8icDf6O9Xh+cfHXjrDpl5OrJwAWy9Dgfqbo920xXBIwJDoc7w58Ih6tVEgEkz1s43i2n8B2trS38zUnOoP+DPu8mq0y1L0KIEuLNzh55yy1v/XkuMQyEESBkEHL5PbMPf7t980fLZFkmhCiKwm1bp+YWT9CViANCdeyXTFbVc66q1SM0nVuSJMXjcbNdkKbS5JNWPBz2ZCWNYPwnE5Go0+uRJMntduXk5AQCgYyMDP8JyMjI8Hq9Ho/H6/V6XK5aGs6S7rhGKl1qo6CR4gq5g3Z11yLg2TUYu/BXEz2ZAS7e8kSSss839g93L5n7QKKqKjMzMxaLmeb6dG7VqliMVFUh4Nv+2itzuqwCAG4z5qaj9GnD5BbXncbjcR7wGA6HZVnmqgTR4Sjds8fQ9bxWrQDATJsWLivz5ea6HI70nDAnA2eMkMr0VL1ywLtFFIRTaEOsRIMTK+Wg7eBu/yeCMQCYcN+9X7z2WvnefZIs80e6jRzR8ryub865HwA8brd5Nh2kcYsmN0q8GAYA4ZTKiudshOqHUgFnVcpYVM35p04c2bW78vBhLGCMMSDETZn8cZNbgUAAAHgAtCzL/Mxixpjkdq98+tmO/ftJLpeZDl5X1ZLv9xR06AAAjnoc0nnK9ONmKgPOLSt063WjoRWkPMGZlNrs1HIHxozSZh079hx7+eL7/5yecHHiX+7f+9X6TR98KLtcjJCqUAgoJYZBDAMBiBjHo1HGGCWEAcMY8xw9LrebpiXSSNdyEEoJpS632wyXSEZYRKOKosRisVqC4hkDgG/ee//BEaNeuXP2zs8+N1SVu5fxxykhDkEAxuLxuNvtzszMzPD5JIeDq6wQxl+8sPDQ1q0jbrkZAEz93Pdr1wmi2KZ7NzhDeii+K8QYi6LID9hu2IFu4DRGCCilOM0Uf5LbEABceuusv48as/a11y+/+SZgjFLqzcqacP+cN/54b5sLzs/My+PBYqYdAwuCKEkIISwKosMRj8cljLlygYfnq9EYACQiESwIXJTWNN3lcmkkAQyQkLT/q/E4I8TrdmuqKgoC1BZXzShpV3xhZkH+Ow/+DQtiYedzO/Tv16Jr18ymTXjTZJerWnsQAoDKwz98/MSCrStX3vjcs76c7KQ7A2MAsOq553tePkYQxTOcGZsxURS5wJdcixsKDUqs4w7adb+XCFFKHbJ8xZ/uefmOuy6aNMmXncVnsi7Dhu78/ItHJl7VddhQNR5XVMXr8ZpLGEKIMpaIRo/98KOqatkFXp77lVLq9vtXv7Bw88cfE13nqx4lFAs8B/PxcYA0DxMkCLFQ6LzhF4++/bYaFSSGkd+69ahbZw39/Q37Nn7z7cpVaxa+qMbiTo87UNAkq1mTQJMm3sxMCkAJMRKJ8gMHSnZ9X3n4cFHnzpOeeKx5l84AwFNqYVFc99aSowcP/u7pJ+GMJ9dLzYg/J2b/p6GhvBtYcszqeT/PP9Zp0KCW3bu/8+CDk//5DzMH82Wz7/RkBqqOHhVE0evwxaJRhyQ5HA5+eKYgYKfLNej3N+Tk5/GeBQBDVUfNmuHCgmHoPD7C0I1UzvckySklSeEMGABQg7h8vi9ee+3HHTtrqyAyNA0AJJer44D+HQf0Z5Qe+/HIkV27juzcVXHoUPn+A1pCYcRgAILDESjI7zx0SMf+/XJbtvyxpMTQNEGWiWEIonjg22+X/OWv1/7rn06Ppz4uWT8NPAVLQ3KrIYjFNQserzeZDbG+jwEgGHTT9Od/fd3369a17dOHEooF5JDlS2bOSL+RAAjVP2LGuFHW9Jb2FxRkZ2VxzyMKTDiVJMOXpGYdOlaVHz3xW4SSUwslBKUEuOzC5tmFzbsMvajuviD8KGvGBFHc/dX6hdNvHjF9auchgy1hVZrH1c/MNXK6aAjyJuJxPj2clloFYcQozS4qHDVrxht/vFdXFCxgrlPgAjv/j1GqJxLlpaVaIkF0vby0VI1GgVIedEB4KkRKecohVVXj0SgYhBLCEyWm/0eq/wcAhqHzUIUaMHSd+7CjVH5AYpag67xWLJVRHBhT4vFYJEJ0AwCww4FFkVL64WOPP3fDjZfMuGXI766nP4NVyWg3Svkek6V3cvXNY424akvzO1h7MgXCAgC4PR5+hTuLQqpNdeyBkzITxvGqqv6Tr9mxes0bf5pzzT/+ztMrCmluSZRSp9OZU1CgaKpOaVZenogxAIiCIDocfC9kZkV3yHI9rYC8cNHhQLhaJfnCmd+mzQfzHgWA7qMuKerS2XFy2yJ/mDt+cZNzIhj8cuWqr95YjDCeuvC5Vj168BM34HQ8OdM1I2IqOUAy1g1jhBFf0BVFUVLGR25fSk8dZakOwkJiEV0/+O22Vrt6qJEIY8yVkfHjdztIKjHaKfU05h+M0msf/sffR1/2xWtvFF91ZbXDKVIHXoZ+/LF0/wFCidvtoZQgQDwfumEYlNF4PE4I9Xq9jlRs6ilBKfEEAj/uOF5hMLVHjPWbdFXzDu2/fP3Nt+7/syCIOS2KmnXsUNC2baBJgdvvlz1eh+zkcbBE19V4PB4Kh0pL92/efGjLtiO7d/mysoZcf12PS0fxzA44zfZQz749nlECoOLw4UNbtxmaBggJDjEWDCnRGNe2cH1hKBTiSStN/3eXy6WntesX5prcpH27LR99XLpzF181+LlcnYYMjiUSuqrWpyU8kiRYWenLyhr317kv33yLHPCfN3JEpLISEHK63ZIsH/r227Uvv7Jvw0ZXhg8hTGm1Yzy4jyCXNVJcrG/9sYDNChuaZhiGqqpVqfxbBV26TOzRo/LIkYObt+xdv37Hl2s3L/uYGiQ1czDz5xFClDKEwJmRkd+ubZfLx3QsvtCTkRGpqmKpueq0IAgCDy3UCHFlZxua/uac+xg/fAAhapAmbdtG43G3KHo9Hj6NqaqabiPnsV88vxxYoz61MJES10cf/yWM+V6PnBA8eSLMXeQPP/yQl5cnCoJDkrZ+vHzRrbdfOfcvvS4fAwCle/etePqZnZ9/0bZXz2FTb2zSri09Icjp5/YOQrzCPAHu0aNHmzdvTtNEGTEtySdjLFFVFQ+F1XhcVxRKCD/E0Olxu/1+b3a26QNtGAYxjDrOU6m7Z0RRPHr0KADk5ORQSvkhidVCJnmYf/WRPTGuEKWdA3/G0fgZuurG4cOH8/PzJUnim6bv1nzy2ux7ug6/GAvCthUr21xw/tCpv2/Stm39U+//ZGiaVlZWVlg9XxdAMlsI1CPilDEGlHHL+k+uBudEZWUlAGRnZ1uxip0RNMQhTdXwU3sBYUwJ6TRo4MzFr7/9wN9Eh+P3zz3TpF1b4PHj/I204iU5ZYVR6qDetHCqWu7h/wgWkKDWVjc2234xMxb/WEPZk34gys8BT1HE3/6TrQ7cVVA6IWtIA4NXki+F/LjX+sxYvHW4foH8ZwRnUeK1+oAbdtI//vwy6+bT8d9KJQlv5B5ACAA8KQ1OPYnS8Nnef2HEgjNtTeOsKi8v//zzz8PhcPPmzfv37/+T/UgbDHXFrtXWwE2bNh08eHDw4ME8sWoDzFu/PGKdQfAuPnjw4JQpU7Zt2+Z2u3Nzc1euXMnd9BCqltHPfIT/ceImq9ZvTyyhPuXU+rHGlXQZ5mRE4XpUhNCzzz776quvrlu3ziSW1fQ624l1So+2nwPuLrxkyZINGzbce++9U6ZMCQaDSU8bhGpkUqBpWeBqfDSdBM37acqDzzQP1Hg2/c70csyfq3Xg00uAtAXuxKQPJqGTUYeS5Ha767j/jKPxw7/qhpkczArwcSopKXG5XAMHDiwoKGjfvj131eIs0XW9oqKCK6m55BuNRisqKlRVTReEOTm44yi/H6eUdsFgsKqqKv1mXrJhGBUVFTypGP+KVHdR58yuEbxKKTXrxo/DrKysNAwj/TA6c5ZCCB07dowfy5DuNMsf59kurBu4s51YgUDACiUe72JFUe6///4PP/zQ6/XOnDmzd+/eq1evBoAxY8YsXbr0m2++GTly5MCBA7ds2QIAH3/88cSJEwcMGDBo0KBhw4Y9/vjj3AanKMrYsWMXLVq0aNGi3r17Dxw4cOzYsZ988smOHTvGjBnTt2/fiy++eM6cOXwU+ZC/++67o0ePHjBgwIABA2677baSkhIAWLFixZAhQ9566y1ewy1btowaNeqaa64Jp4J5HnjggUsuueTIkSMIoV27dk2dOrVfv37FxcWjR49esmQJJyK/bebMmRUVFdOmTbvggguefvppqH5UkSAI8+fPHzBgwIoVK8AyU/TZvhTWHV/6M8ET1GRmZoZCoU6dOmVnZ+fl5RFCtm3b9tRTTx05ciQvL2/gwIHce33//v3l5eWTJk3KyMh4/fXXZ8+enZ+fP2HCBE3Ttm/fvmvXrqysrAkTJhw7duyVV16ZPn262+0+99xzhwwZsnTp0oceeqhFixbXXXcdZ9WUKVO6du06a9asgwcPLliwYN++fW+//XbLli03bdr04Ycfjhs3DgBWrVq1YcMGh8PxzTffDB48OB6Pv/766x6Pp3nz5qWlpddcc83hw4enTJmSm5u7dOnS3/72t6qqXnXVVQBw8ODBlStX7tmz54cffujfv38rHrIBAKkY60cffXT27Nk33njjyJEjLRw5dnaDv2oWga+zt99+e2Zm5ldffcUvRiKR7t27Z2dnP/LII+kV4EsVf2TLli15eXmzZs1ijFVVVXXt2rWwsHDLli38zqlTp3o8njvuuIN/XLduXW5u7vXXX88Y03W9f//+PXr0CIfD/NvHHnvM7/evWbOGMXbRRRedd955PLvEqFGjrr322p49e86ZM4cxtmHDhpycHP733LlzPR7PwoULeQklJSVdu3bt3r07t2PeeuutHo9n/PjxoVDIbOPNN9+cn59/6NChV155xev1zpgxg7fLuu4925fCBtgY8whY/i8AYIzj8XjHjh2nTZsGaSsFIWTjxo0LFy58+OGHX375ZQDgSyGPgW7btm2nTp34lebNm4uiOHToUP54UVGRy+Xiss6hQ4cOHTqUkZGxZMmSBQsWLFq0aN++fYSQrVu3AkBxcfGhQ4f27Nlz7NixzZs3Dx06tFevXqtWrQKAr7/+Wtf1Cy+8EAA2btyYnZ09ZMgQXu2CgoL+/fsfOnRo165dAMC1uLNmzfL7/WYwCKXU4/GsWLFi9uzZ48aN+9e//gXWODWYONuXwgaA6UxiXiGEZGdnO9LCKILB4K233rp8+fKWLVs2bdqUv5TmVo4f52TKgvzAc57QBqWSE/ObY7GYIAjl5eULFizgN0uS1KVLF34aVHFx8bx587Zu3XrkyBFVVfv160cpffvtt3/88cdNmzZlZ2f36tULALgXaFZWFqSyPObl5THGeIgsz5OTk5OT3ihBEKLR6Ny5c1VVNTMJsF+oo98vGukpXwDglVde+fe///3HP/7xrrvukiRpz549/fv3Z6lNVvr9kLbJNz+af3s8HkVRevfu/dJLL5nH6PHzzwCgZ8+eOTk5GzZscDqdLVq0aNWqVSwWQwgtX758y5YtPXv25NKex+NRVTUYDHq9XkIIZypCyPSB4WtcenMwxolE4tZbb5Vl+a677mrbti1fVa2bsc72pbABwLfuNVx4j8fqIAQAhw8f9nq9xcXFnAGrV6+ORqNmHpga2Xv5lRMLBICioqJ27dqtX7/+8OHDfr/f5/P5/X63281nx8zMzD59+qxfv/6rr74aPHgwALRt27Z169ZLly6trKwcMGAAL61Pnz4VFRXLly8HAEmSSktLP//888LCwrZt29baHABgjHm93nHjxs2YMWPcuHHz589///33j6eTsAD2jAU8hVX6lBOPx023OD73dOvWTVGUhx566NChQ9u3b1+3bp3L5eJLD1+D0t3oNE1LL5AxFovFeESyKIqzZ8+eMmXK2LFjJ0+enJWVdeDAgQ0bNjz55JMtWrQAgAEDBnzwwQeyLN95550A4HQ6+/Tp8/TTTwcCgeLiYl7g5MmT33nnndmzZ2/fvr1JkyZLly7dv3//E088wXfQmqbxwxZPbCNXeTz44IPffvvtzTff3KpVq06dOlmkLBXuu+++xh7ZxgRCaOfOnYlE4rLLLsvPzwcAQsi6devatWs3fPhwSGnP27dvDwCbNm369NNPCSHz5s1DCOXk5AwcOJAQsnbt2vT79+7dGw6HzQJVVf366687d+48ZMgQxtg555zTo0eP/fv3r1y5cu3atXv37u3Ro8ell17K50KPx7Nr167WrVvfeOON5tK2b9++Xr16XXvttfxAda/XO3jw4FgstmbNmvXr1+fn599///2/+tWvuJ52586dqqpeccUVgUCApTSl/OL48eMDgYDf72/Tps22bdtisdigQYMsWg3PdreZBkBye1zdegO1eQSEw2FKKT/Yl6UZAWvcX2uBpt3GlGzC4bCu6z6fr0aetxN/vYZFyCwhGo2qqsozZbI0e2WNX69x0aw5T5hrkW3HJla9UGNgThy500IdZsf0X6xjLqlBPi7Cn1ZzrNbj2MQCqIdbgXkdTuKqUDct2EmSbPM/TnwW6mGQrruEU1bSam7ZxLJhCWx1gw1LYBPLhiWwiWXDEtjEsmEJbGLZsAQ2sWxYAptYNiyBTSwblsAmlg1LYBPLhiWwiWXDEtjEsmEJbGLZsAQ2sWxYAptYNiyBTSwblsAmlg1LYBPLhiWwiWXDEtjEsmEJbGLZsAQ2sWxYAptYNiyBTSwblsAmlg1LYBPLhiWwiWXDEtjEsmEJbGLZsAQ2sWxYAptYNiyBTSwblsAmlg1LYBPLhiWwiWXDEtjEsmEJbGLZsAQ2sWxYAptYNiyBTSwblsAmlg1LYBPLhiWwiWXDEtjEsmEJbGLZsAQ2sWxYAptYNiyBTSwblsAmlg1LYBPLhiWwiWXDEtjEsmEJbGLZsAT/B5kiUcnpGIsKAAAAJXRFWHRkYXRlOmNyZWF0ZQAyMDE5LTA5LTE3VDE2OjE1OjQyKzAwOjAweZaGGAAAACV0RVh0ZGF0ZTptb2RpZnkAMjAxOS0wOS0xN1QxNjoxNTo0MiswMDowMAjLPqQAAAAASUVORK5CYII=;" vertex="1" parent="1">
                    <mxGeometry x="147.71" y="455" width="50" height="50" as="geometry"/>
                </mxCell>
                <mxCell id="24" value="" style="shape=image;verticalLabelPosition=bottom;labelBackgroundColor=#ffffff;verticalAlign=top;aspect=fixed;imageAspect=0;image=data:image/png,AAABAAEAICAAAAEAIACoEAAAFgAAACgAAAAgAAAAQAAAAAEAIAAAAAAAABAAAAAAAAAAAAAAAAAAAAAAAAAAAAAAAAAAAAAAAAAAAAAAAAAAAAAAAAAAAAAAAAAAAAAAAAAAAAAAAAAAAAAAAAAAAAAAAAAAAAAAAAAAAAAAAAAAAAAAAAAAAAAAAAAAAAAAAAAAAAAAAAAAAAAAAAAAAAAAAAAAAAAAAAAAAAAAAAAAAAAAAAAAAAAAAAAAAAAAAAAAAAAAAAAAAAAAAAAAAAAAAAAAAAAAAAAAAAAAAAAAAAAAAAAAAAAAAAAAAAAAAAAAAAAAg7hBAIO4QQCDuEEAg7hBAAAAAAAAAAAAAAAAAAAAAAAAAAAAAAAAAAAAAAAAAAAAAAAAAAAAAAAAAAAAAAAAAAAAAAAAAAAAAAAAAAAAAAAAAAAAAAAAAAAAAAAAAAAAAAAAAAAAAAAAAAAAAAAAAAAAAAAAAAAAAAAAAIO4QQCDuEEAg7hBM4O4QTODuEEAg7hBAAAAAAAAAAAAAAAAAAAAAAAAAAAAAAAAAAAAAAAAAAAAAAAAAAAAAAAAAAAAAAAAAAAAAAAAAAAAAAAAAAAAAAAAAAAAAAAAAAAAAAAAAAAAAAAAAAAAAAAAAAAAAAAAAAAAAAAAAAAAg7hBAIO4QQuDuEGxg7hBsYO4QQuDuEEAAAAAAAAAAAAAAAAAAAAAAAAAAAAAAAAAAAAAAAAAAAAAAAAAAAAAAAAAAAAAAAAAAAAAAAAAAAAAAAAAAAAAAAAAAAAAAAAAAAAAAAAAAAAAAAAAAAAAAAAAAAAAAAAAAAAAAIO4QQCDuEEAg7hBWoO4QfeDuEH3g7hBWoO4QQCDuEEAAAAAAAAAAAAAAAAAAAAAAAAAAAAAAAAAAAAAAAAAAAAAAAAAAAAAAAAAAAAAAAAAAAAAAAAAAAAAAAAAAAAAAAAAAAAAAAAAAAAAAAAAAAAAAAAAAAAAAAAAAAAAAAAAg7hBAIO4QRqDuEHJg7hB/4O4Qf+DuEHJg7hBGoO4QQAAAAAAAAAAAAAAAAAAAAAAAAAAAAAAAAAAAAAAAAAAAAAAAAAAAAAAAAAAAAAAAAAAAAAAAAAAAAAAAAAAAAAAAAAAAAAAAAAAAAAAAAAAAAAAAAAAAAAAAAAAAIO4QQCDuEEAg7hBeoO4Qf6DuEH/g7hB/4O4Qf6DuEF6g7hBAIO4QQAAAAAAAAAAAAAAAAAAAAAAAAAAAAAAAAAAAAAAAAAAAAAAAAAAAAAAAAAAAAAAAAAAAAAAAAAAAAAAAAAAAAAAAAAAAAAAAAAAAAAAAAAAAAAAAACDuEEAg7hBAIO4QS6DuEHfg7hB/4O4Qf+DuEH/g7hB/4O4Qd+DuEEug7hBAIO4QQAAAAAAAAAAAAAAAAAAAAAAAAAAAAAAAAAAAAAAAAAAAAAAAAAAAAAAAAAAAAAAAAAAAAAAAAAAAAAAAAAAAAAAAAAAAAAAAAAAAAAAAAAAAIO4QQCDuEEFg7hBmoO4Qf+DuEH/g7hB/4O4Qf+DuEH/g7hB/4O4QZqDuEEFg7hBAAAAAAAAAAAAAAAAAAAAAAAAAAAAAAAAAAAAAAAAAAAAAAAAAAAAAAAAAAAAAAAAAAAAAAAAAAAAAAAAAAAAAAAAAAAAAAAAAAAAAACDuEEAg7hBAIO4QUiDuEHwg7hB/4O4Qf+DuEH/g7hB/4O4Qf+DuEH/g7hB8IO4QUiDuEEAg7hBAAAAAAAAAAAAAAAAAAAAAAAAAAAAAAAAAAAAAAAAAAAAAAAAAAAAAAAAAAAAAAAAAAAAAAAAAAAAAAAAAAAAAAAAAAAAAAAAAIO4QQCDuEEQg7hBuIO4Qf+DuEH/g7hB/4O4Qf+DuEH/g7hB/4O4Qf+DuEH/g7hBuIO4QRCDuEEAAAAAAAAAAAAAAAAAAAAAAAAAAAAAAAAAAAAAAAAAAAAAAAAAAAAAAAAAAAAAAAAAAAAAAAAAAAAAAAAAAAAAAAAAAACDuEEAg7hBAIO4QWaDuEH6g7hB/4O4Qf+DuEH/g7hB/4O4Qf+DuEH/g7hB/4O4Qf+DuEH6g7hBZoO4QQCDuEEAAAAAAAAAAAAAAAAAAAAAAAAAAAAAAAAAAAAAAAAAAAAAAAAAAAAAAAAAAAAAAAAAAAAAAAAAAAAAAAAAAAAAAIO4QQCDuEEgg7hB0oO4Qf+DuEH/g7hB/4O4Qf+DuUH/g7lB/4O4Qf+DuEH/g7hB/4O4Qf+DuEHSg7hBIIO4QQAAAAAAAAAAAAAAAAAAAAAAAAAAAAAAAAAAAAAAAAAAAAAAAAAAAAAAAAAAAAAAAAAAAAAAAAAAAAAAAACDuEEAg7hBAYO4QYaDuEH/g7hB/4O4Qf+DuEH/g7lB/3ykP/98pD//g7lB/4O4Qf+DuEH/g7hB/4O4Qf+DuEGGg7hBAYO4QQAAAAAAAAAAAAAAAAAAAAAAAAAAAAAAAAAAAAAAAAAAAAAAAAAAAAAAAAAAAAAAAAAAAAAAg7hBAIO4QQCDuEE3g7hB5oO4Qf+DuEH/g7hB/4O4Qf+CtEH/amw5/2psOf+CtEH/g7hB/4O4Qf+DuEH/g7hB/4O4QeaDuEE3g7hBAIO4QQAAAAAAAAAAAAAAAAAAAAAAAAAAAAAAAAAAAAAAAAAAAAAAAAAAAAAAAAAAAAAAAACDuEEAg7hBCYO4QaaDuEH/g7hB/4O4Qf+DuEH/g7lB/3eTPf9fTDX/X0w1/3eTPf+DuUH/g7hB/4O4Qf+DuEH/g7hB/4O4QaaDuEEJg7hBAAAAAAAAAAAAAAAAAAAAAAAAAAAAAAAAAAAAAAAAAAAAAAAAAAAAAAAAAAAAg7hBAIO4QQCDuEFSg7hB9IO4Qf+DuEH/g7hB/4O5Qf+ArkD/ZmE4/15INf9eSDX/ZmE4/4CuQP+DuUH/g7hB/4O4Qf+DuEH/g7hB9IO4QVKDuEEAg7hBAAAAAAAAAAAAAAAAAAAAAAAAAAAAAAAAAAAAAAAAAAAAAAAAAAAAAACDuEEAg7hBFYO4QcKDuEH/g7hB/4O4Qf+DuEH/g7lB/3KFPP9eSTX/Xkk1/15JNf9eSTX/coU8/4O5Qf+DuEH/g7hB/4O4Qf+DuEH/g7hBwoO4QRWDuEEAAAAAAAAAAAAAAAAAAAAAAAAAAAAAAAAAAAAAAAAAAAAAAAAAg7hBAIO4QQCDuEFxg7hB/IO4Qf+DuEH/g7hB/4O5Qf99pj//Y1c3/15INf9eSTX/Xkk1/15INf9jVzf/faY//4O5Qf+DuEH/g7hB/4O4Qf+DuEH8g7hBcYO4QQCDuEEAAAAAAAAAAAAAAAAAAAAAAAAAAAAAAAAAAAAAAAAAAACDuEEAg7hBKIO4QdqDuEH/g7hB/4O4Qf+DuEH/g7dB/212Ov9eSDX/Xkk1/15JNf9eSTX/Xkk1/15INf9tdjr/g7dB/4O4Qf+DuEH/g7hB/4O4Qf+DuEHag7hBKIO4QQAAAAAAAAAAAAAAAAAAAAAAAAAAAAAAAAAAAAAAg7hBAIO4QQODuEGSg7hB/4O4Qf+DuEH/g7hB/4O5Qf95mz7/YFA2/15INf9eSTX/Xkk1/15JNf9eSTX/Xkg1/2BQNv95mz7/g7lB/4O4Qf+DuEH/g7hB/4O4Qf+DuEGSg7hBA4O4QQAAAAAAAAAAAAAAAAAAAAAAAAAAAIO4QQCDuEEAg7hBQIO4QeyDuEH/g7hB/4O4Qf+DuEH/gbJA/2lpOf9dRzX/Xkk1/15JNf9eSTX/Xkk1/15JNf9eSTX/XUc1/2lpOf+BskD/g7hB/4O4Qf+DuEH/g7hB/4O4QeyDuEFAg7hBAIO4QQAAAAAAAAAAAAAAAAAAAAAAg7hBAIO4QQ2DuEGxg7hB/4O4Qf+DuEH/g7hB/4O5Qf91jj3/X0s1/15JNf9eSTX/Xkk1/15JNf9eSTX/Xkk1/15JNf9eSTX/X0s1/3WOPf+DuUH/g7hB/4O4Qf+DuEH/g7hB/4O4QbGDuEENg7hBAAAAAAAAAAAAAAAAAIO4QQCDuEEAg7hBXYO4QfiDuEH/g7hB/4O4Qf+DuUH/f6xA/2VdN/9eSDX/Xkk1/15JNf9eSTX/Xko15V5KNeVeSTX/Xkk1/15JNf9eSDX/ZV03/3+sQP+DuUH/g7hB/4O4Qf+DuEH/g7hB+IO4QV2DuEEAg7hBAAAAAAAAAAAAg7hBAIO4QRuDuEHMg7hB/4O4Qf+DuEH/g7hB/4O4Qf9wfzv/Xkk1/15JNf9eSTX/Xkk1/15JNfxfTDVuX0w1bl5JNfxeSTX/Xkk1/15JNf9eSTX/cH87/4O4Qf+DuEH/g7hB/4O4Qf+DuEH/g7hBzIO4QRuDuEEAAAAAAIO4QQCDuEEAg7hBfYO4Qf6DuEH/g7hB/4O4Qf+DuUH/fKI//2JUNv9eSDX/Xkk1/15JNf9eSTX/X0o1wWFQNhNhUDYTX0o1wV5JNf9eSTX/Xkk1/15INf9iVDb/fKI//4O5Qf+DuEH/g7hB/4O4Qf+DuEH+g7hBfYO4QQCDuEEAg7hBAIO4QS+DuEHhg7hB/4O4Qf+DuEH/g7hB/4K1Qf9scTn/Xkg1/15JNf9eSTX/Xkk1/15JNfNfTDVQXkg1AF5INQBfTDVQXkk1815JNf9eSTX/Xkk1/15INf9scTn/grVB/4O4Qf+DuEH/g7hB/4O4Qf+DuEHhg7hBL4O4QQCDuEEHg7hBnIO4Qf+DuEH/g7hB/4O4Qf+EukH/eJY9/2BONv9eSTX/Xkk1/15JNf9eSTX/X0s1pGJUNwhhUTYAYVE2AGJUNwhfSzWkXkk1/15JNf9eSTX/Xkk1/2BONv94lj3/hLpB/4O4Qf+DuEH/g7hB/4O4Qf+DuEGcg7hBB4O4QVeDuEHwg7hB/4O4Qf+DuEH/g7lB/4CvQP9nZDj/Xkg1/15JNf9eSTX/Xkk1/15KNeVgTTY1X0s1AGpmOQBqZjkAX0s1AGBNNjVeSjXlXkk1/15JNf9eSTX/Xkg1/2dkOP+Ar0D/g7lB/4O4Qf+DuEH/g7hB/4O4QfCDuEFXg7hBmoO4QciDuEHGg7hBxoO4QcaEukHGdpE9xl9LNcZeSTXGXkk1xl5JNcZeSTXJX0s1dWhhOQJiUzcAAAAAAAAAAABiUzcAaGE5Al9LNXVeSTXJXkk1xl5JNcZeSTXGX0s1xnaRPcaEukHGg7hBxoO4QcaDuEHGg7hByIO4QZqDuEEOg7hBDYO4QQ2DuEENg7hBDYO5QQ1scjoNXEQ0DV5JNQ1eSTUNXkk1DV5JNQ1gTTYFXkg1AAAAAAAAAAAAAAAAAAAAAABeSDUAYE02BV5JNQ1eSTUNXkk1DV5JNQ1cRDQNbHI5DYO5QQ2DuEENg7hBDYO4QQ2DuEENg7hBDgAAAAAAAAAAAAAAAAAAAAAAAAAAAAAAAAAAAAAAAAAAAAAAAAAAAAAAAAAAAAAAAAAAAAAAAAAAAAAAAAAAAAAAAAAAAAAAAAAAAAAAAAAAAAAAAAAAAAAAAAAAAAAAAAAAAAAAAAAAAAAAAAAAAAAAAAAAAAAAAAAAAAAAAAAA/////////////n////w////8P///+B////gf///wD///4Af//+AH///AA///wAP//4AB//8AAP//AAD//gAAf/4AAH/8AAA//AAAP/gAAB/wAAAP8AAAD+AAAAfgAAAHwAAAA8AAAAOAAYABAAGAAAADwAAAA8AAAAfgAP////8=;" vertex="1" parent="1">
                    <mxGeometry x="197.25" y="460" width="40" height="40" as="geometry"/>
                </mxCell>
                <mxCell id="25" value="" style="shape=image;verticalLabelPosition=bottom;labelBackgroundColor=#ffffff;verticalAlign=top;aspect=fixed;imageAspect=0;image=data:image/png,iVBORw0KGgoAAAANSUhEUgAAAYQAAACCCAMAAABxTU9IAAAAclBMVEX///8Nl00AkT4AkkIAlkoAjjcAkkHo8uwAlEap0La318KgzK/R5djJ4dE1oGDD3syv1LxrtIVKp22Nw58AjTT0+fbj7+eZyKkqnVo/o2aQxKLc6+Hv9vEnnFhhr35FpWpUqnWCvZdxtop6upFarXkAiispbxSeAAAMR0lEQVR4nO2da3eCuhKGJVzEW22t1taqRdv+/7+4FRWTuWVC3euss/a8H0Ug4SHJZDIZBgOTyWQymUwmk8lkMplMJpPJZDKZTCaTyWQymUwmk8lkMplM/0nNj02z2Kz+18X4N/Q5em2aw+gz9bzpZt80m9Gb+KftUKtttJw7VxdFkS9HxMHheD6WS0LrjTtvfGia/Xra44qTl6Z5eU56Vca7Mj/Vrc7L3TzlvFnmzuflVdkIj2+xdFotG/mGb8siu6icgEPbQ1W2l3gZplRhMN+3p7nyOINHCtc+FJetk644mD9dHmf1S70qtD7f3a1qWeGeom9jp3H3SLK6ZBvRyGV6ubF4x/fuhtkyfHc/y/xWFLKVMNouyrqrwkdQ9UN5u1lRFRCQoOHH/XG6H+VJ8997zc53XGqb39uvf1rG/a3OUpRLd3z2eNZ7/8iw9K6xVDfnaemXrvBPfPavWJQb7SXnpf843avqpKH/KC91UGJ/CR5vBfuHqyZVGoRv4Y4Lv35Lv8cNy+J0FTgxgFW/U8jDI+6ou+RoCa6oGmZ/0Jta1LoeKbxd8UH+aQXrGdNSGFqDB+O8FrsNy1I9qyqAGHj4nuG7UzWaS47gJXNNU1gBcu3z3Gnu9wn6+pK0BV5zfH1RDMy2rEENK2/4GIePrJaaU6dtHfTDl4vexpMX9G7mi/glEQPds3yjhs1aM57Ad6Wk2s8wZVS+yLGv8TS4mA9hFKIunhTlH+wwg/tIQxyMU8AMTi1bUZIx2WU7xTgEIThqQMcvVFwVd8fZQyEsqKIVX9ej7wShGAWKQVYqikJDyErZVDxLA+EzdURo68p1JiEEv7ftAeGbqfj1MNVMIhQmZGX7twR5fLxIA2FBVSUqzqJ4JATyrc3uEI5kE5Yo0Ax4090TB6EQDfazFBAI80Mjbmx+IAS2ZDcIyDq63pSlQDPIao1py0HI6lhFFBCojlUjZmx+HIRtzpXsBoEzrTkKDIPMaSZdLIQsf5HPjEMYp5tGV9Fj8+MgEMbpVd04SvdHHAWOgao3EiBkjpkDXxWHkMGq1pzjDlaYHpsfBuGDt9k6CFvuDaIocAyyUuVBESBkpdiUohCQwyL/mU1npA6wxuTY/CgIR2ECebcoJ3oKLINc5+yQIGRO8gpHIcCqCnPhwSFX/PdBENine5Zn1mOHzu3OX+CCHAPdpDECoXgXzoxBgM9VbliwGNTY/BgIU8JR4xXS++dOR4FnkCuXNkQIWd3wZ0YgIPMi9D1DzeHfCU/oQyC8iQzCCa6Kwt8ZRCBk1YE9MwIBOSwi078G/J9wwgG3hddW9BBWvGHUKvQyKCg8gEEMQlayy1QyhDfUECKeTeTqw2PzI3xHgmF0qW/49yiFRzCIQshKbqFNhrBHDSG26r0G18NP8gEQJMPoUl1wQoSCwEC/TByHUNQMURHCDC1u8P1aV1/QUaCx+e8Q1tHpI3J6shTqL4mBcmHsIgQB3bNmLEsRwgfseVn/9F3InwPH5j9DGKNnlsPqYs8zT2Fx5JimMUAQ6jVqsDm9xCNBQA6LShM1Aj0FcBj5q3WEHetuBO0Hwv3PUij4A0kMEAQ3RcZi5siuRIIAHRY6Fwqa3oGx+Y8Q8HJmvkdGHLUGw1JglMoAQ5gNNqiRlZRXU4CAHBaRcKLukmURqA4ni7PgsG89qyCgdZqzo1gDIZFCMgMKwmCPeiTKlSNAgBQlh0Wg769FoKdgkr0Njn14ZdJAgBORU/NcKSEM3hMopDMgIeB3hrowD2GT5LB4hBQQ8HKmO1PUQUig0IMBDWGF1jyIJR4WAoqikZwfj1EcAvbaXZbRlRDUFPowoCGgmCJqiYeF8I3Mvj6h0kmKQsDLmVdrQwtBSaEXAwYCYVGjKBgOAvKQ1ZElugcoBmGLvHa31qmGoKLQjwEHgehCYZgtBwG54enQvIcqBgF1r11gnB7C4ClKoScDFgIRGwXcoAwE7LBQBzT3VwQCenxFfXsxEiBE20JfBjwEvEJc5MErzUBADgscOzObbF5uWk+iuk+2gyVRvzAyhBdkcrvOvE2BEGkLvRkIELZoWAhNJBoCclg44Asf7p3L8/qmPKr7no/prx8c8KtdT8BeO2/ymQRBpNCfgQBhMEOjWWAi0RCgaQRXSEdlqg/g7vHo57YYo2r4OzfSIAy+2CWhYtebgQSBcNQ6zw9HQ4CrAnUYn89FH/LyHNq9IGCvXeCQTITABzgXish5ThIEykS6H2bGBFjK2r8bNhVj8j0efSAMkdcudEilQdgLqy+cy18hEQJlInVLPAwEOCjkvhP7kBwp73s8+kDAhlERmBdJECQGf6EgQ1gRJtLtGDdPgAGo/jSBDDgXK+Z3HT0gIK+dZxi1SoEgM/gDBRkC4b/oTCQOApwo+Esz6Q3Bf2TpEA7oscGNFwkQYgwUQdSMIhBwPFBnIrG+I/j2ea6j1A1sYaxSMgTCsoD7+PQQ4gx6t4UYBGKJ5xoozEKA0S6eE/UpsTsKPR6pEGbYDYkC0NQQNAz6UohCoJZ42v/w6wkwAPI+uP5tU3MiBLxpkegutBB0DHr2SHEIxGjamkg8hBWM7u2Mwlj8GxAI0UiEgL12GXYlKiH8qDvSPhQUEFYVaSIlrDHfl5inZQIFmCQgDQJ2MThikVYHQc+gFwUFBMpE+kiLtrhHEE0Lp8WA9mEnQcBeO3JHqgpCCoM+FDQQqKCpY1LckT9je/4qS3q/DrgHCtFIgYC9dvTebA2ENAY9KKggEPa2m+CIJe8E6OgKI1HpjFPhhv1oLKoE4YtwPtKR+QoIPAOuTadS0EEg/BduD7scHwJc09VkmwAOWByJrIaQ4UAhznaMQ2AZFBm7ypNIQQkBL/GgH+So7Pjm9M/w5SVCNAAEb6ECQiAeGLPGGoXQ8AxW/PpCGgUtBLzEAxVCGIL+IJ6zBEzkCGogINhb845CoAyjVjEIQjs4Y2W3OyRR0EKIbPXK0E4dmGMnFgD2HI4IVIiGOiobacmGYUYgRBgIa20pFNQQwnxkhOCeNc1+TP7vjlin6g3B8THhMoQoA6ktSLsuQ+khECZSeCYYSPkZGyUQFk/uKekLQcpNIEJQMHhIj5QAgc4QdD8TWjPA3SGGx8NFyJwaR3tCEJ1qEoRXdg9IMMz/nUIKBMJE8s+EEOCMTdooAkZlOqthPwisYdRKgID9x8wVWQrM3AQpCYJoIuHcFnDGVrFPA+ROLQryX/0gsIZRKx4CimLrSoeoshQ0GdQGiRBEEwlDQDM2LtMDGpXp4aMXhEiKDx4C5/ClWhZLQRcLnQZBMpGIfEewhu5IhtiN4OjBZFDsA0EwjMgidhC4NJY12btxFOQ0BjclQhBMJALCEO0op4PsYGgAU4YeEGJJm3gIzIBAM+ApxD0Fg3QIvIlE5cBLzop6VvGFL9QqHULNXaoTB2FOQ+AYsBRU4dDJEFgTiYIAO3uV2NznyRBkw6gVBwHtdGnFM+AoiIlybkqHwJlIjmp4SSnjrxVle5BkCGK+pos4CGTQqcSAo9AnJacicR6T7JTeC5Ic7pWV7JML8cchaDKvAwhdV0imD440LJJCn+S0ZJ5feA5JgU6cwPStvIQM3zwEMkMHufsaCkK4za4JCDEGNIU+EFR7m1DKuox30PHB5LSkbDBBWf3JBDLDMi4PARQwHbqpDMpSk9W7+KMhKGi6IxAnrRpHqFX0MPDXU2KmZu4yl9v6dVz6flZss5UqBrB4HVmU4kPD4PTKodNUE4UQuSoRyEkNXkfnypiWs1xMTOz3baEhC6fyRan9Dk4Q23b3l6xABXUMTrWFHzRQ7aMf+iEotS4RyEkbEEDEL5vANTZRfN7+Vv43dUJD1vu+z0lVps8hsLhTqKu7hReGa7hGuwX1O2haWkfq8J4atorb1Z2mOy+lbM0zSJqxxT758NahR2/69OP8SafzNWqnbc8XHZfnrEfnb2stfCvba+z1Us7TG2jsbQjTL+ys9mV1dh64mJ8FaN6UrvU6VOVC9FTm6k98/cZe4Gl9DgcsyC9IfY6OH65yi++kz5SdNFz/1FX28woMw9flBWpe7tO+GvZdVi2HumwSzto+b9abSfpH3Vaz0Wa93oxjW+bmWikcLZN354pD2lPpqc/v3enFWIzSb/a8P714Bfpym8lkMplMJpPJZDKZTCaTyWQymUwmk8lkMplMJpPJZDKZTCaTyWT6v9c/JfW2yH0PjtoAAAAASUVORK5CYII=;" vertex="1" parent="1">
                    <mxGeometry x="147.71" y="500" width="89.54" height="30" as="geometry"/>
                </mxCell>
                <mxCell id="26" value="" style="shape=image;verticalLabelPosition=bottom;labelBackgroundColor=#ffffff;verticalAlign=top;aspect=fixed;imageAspect=0;image=data:image/png,iVBORw0KGgoAAAANSUhEUgAAAMgAAADICAIAAAAiOjnJAAAABGdBTUEAALGPC/xhBQAAACBjSFJNAAB6JgAAgIQAAPoAAACA6AAAdTAAAOpgAAA6mAAAF3CculE8AAAABmJLR0QA/wD/AP+gvaeTAAAACXBIWXMAAAsTAAALEwEAmpwYAAAAB3RJTUUH4wkREA8q+bTnbgAANWNJREFUeNrtXXecFEXafqu6p6cn7czmJeySJAoIKMklCwIiKBI8UeTO8zwBFTCidyd6x+mdd55gwCxiOAMnyhmRaARBJIkEySgb2GVmdlKnqvr+qJlmdlmWReld/K6fnz/c6emuqfB01VtvKsQYAxs2zjRwY1fAxv9P2MSyYQlsYtmwBDaxbFgCm1g2LIFNLBuWwCaWDUtgE8uGJbCJZcMS2MSyYQlsYtmwBDaxbFgCm1g2LIFNLBuWwCaWDUtgE8uGJbCJZcMS2MSyYQlsYtmwBDaxbFgCm1g2LIFNLBuWwCaWDUtgE8uGJbCJZcMS2MSyYQlsYtmwBDaxbFgCm1g2LIFNLBuWwCaWDUtgE8uGJbCJZcMS2MSyYQlsYtmwBDaxbFgCm1g2LIFNLBuWwCaWDUtgE8uGJbCJZcMS2MSyYQlsYtmwBDaxbFgCm1g2LIFNLBuWwCaWDUtgE8uGJbCJZcMS2MSyYQlsYtmwBDaxbFgCm1g2LEFDE4sx1thNttEQQI040pRSAEAIIYQaux9snGE0KLHM37KZ9P8eDbQU8snp4MGDI0eOfOSRR/jFVatW/eMf/6iqqgJ7ifx/B8uJxRgjhHBiJRKJL7/88vvvv+dfPfvss3feeeeuXbsgRSxKKb+ZEJJONf7RLKrGtzUe5OC/mF6B9Is2rIZoaemMMYSQIAimOOXxeJxOJ/927ty5v/3tb3v06AEAGGPz3xqPA4AgCPyK+Uf6t4yxGg+m33PiU2CvxdbDQmLxgS8tLV22bNnRo0f79OlTUFAAqWURABKJBGMsHo/7fD4AUBRly5YtmzZtikajzZo1u+iii/Ly8gCAEPL+++937do1Pz//nXfeKSkpadq06cUXX5yVlWWyZMuWLatXr47FYm3atPH5fOFwuEWLFsXFxQghVVU/+eST7777ThTFPn36XHDBBY3d5/8bYNaAr1bfffddz549A4FA69atW7ZsefXVVxcVFd100038nt///vcej2f79u3840MPPeT3+zt16tStW7fs7OzevXvv3r2bMRaJRIqKiiZNmjR8+PDmzZu3bNkyEAhcdNFFZWVl/MGnnnoqPz9/+PDh1113XZs2bfLz83v27Pnkk08yxkpKSsaOHZuVldW6devCwsLc3Nw5c+ZY1GQb6bCKWBy//vWvfT7fvHnzEonE3r17x40b5/P5Zs6cyb+dMWNGQUHBzp07+cetW7e+++67sViMMfbss896PJ65c+cyxsLhcLdu3XJycu66665gMBgMBqdNm+Z2u5955hnGWFlZWevWrUePHq1pGmNs8eLFOTk5ixYt4mXOnDnT4/HMmzcvFouVlpZed911Xq/3tddeYynq27AIlgjvjDEAKC0t/eyzz7p37z516lRZllu3bn377beLoshScrdZCQAghHTp0uXSSy/lEljv3r29Xm9ZWRkAYIxVVS0sLLz77rsDgUAgEBg/frzT6fzxxx8BoLy8vKqqqnv37g6HAwC6du0qSdLu3bv5V++9917v3r2nT5/udrvz8/Nnz56dkZGxZMkSOEGes3FmYYmMxRhDCAWDwWg02rFjR0mSDMMQRbGwsNDlcqVvzUySCYKwZs2aF154Ye/evaqqappGCDFFbF3XzznnHJ/PRwgRBMHpdGKM+bdFRUVNmjRZvXr1jBkzsrKyVqxYEQwG27RpAwBHjx6NRCLt27cXRZE/WFhY2KRJkx9++EHTNEmSWEr8t3HGYe2uECGUPjHUqmTnPFuzZs2kSZOaNWs2bdq0Dh06VFRUXH/99ay6TiH9WZMTGRkZ8+fPv+GGGwYMGFBQULB79+7f/OY3V155JdhzUqPCEmLxIQ8EArIs79q1yzAMvuE/cuSIoii1jvdHH30Ui8UefPDBoUOHAsDXX3+dPmOZxbLadPfhcDgnJ+eOO+7wer3t2rVr2bIlJ2tBQYHf79+5cyefLwHg8OHDpaWlffr0kSQJbKWDlbDkneYD1qRJk+Li4q+//vqZZ57RNO3QoUP//Oc/VVVN1yqZcLvdhBAuGx0+fPjvf/+7eSef9tJJgFLgH9966y2uoSgsLKyoqPj2228NwwCAzMzMK664Yv369fPnz49Go2VlZX/7299CodAVV1wBaVoPG1bAqqWQUooxvvvuu3fu3PmHP/zh4YcfJoSMGzeuadOm3IYD1XWVY8eOXbx48Zw5c55//vlwODx+/Pj27duHQiF+WzweVxTFLJwQEo/HNU3jH0eOHPn++++PHDmSExFjPHjw4CeeeCI7O/uOO+44dOjQAw888MQTTxiGoSjKjBkzrrrqKrAXSothFbEwxoyxc88997333lu2bFllZWX37t0HDx586aWXejweLiHxeYgTq0uXLkuWLFm5cmUsFuvevfuQIUPWrVvHi5JlecGCBRkZGZBiYYcOHV566aW2bdsCwLvvvvvAAw/ceOONffv2JYQAwIoVK1566aUlS5b87ne/CwQCixYt+uyzz7Zu3SoIQt++fc8///zG7vP/DViqzKCU1vqR/zFt2rT8/PwdO3YwxgzDqOPBOjBixIji4mJ+Py9k69at+fn5jzzyCL9yYh3qX7iNnwzLd4WMMUopn2n4R03Tli9fXlFRsWrVqqysLG7nwRjz8YaUUMVlIL5gcUHeXLwYY/yKIAgtW7ZcunTpG2+80atXL0LIgQMHHn74YbfbPXz4cEjNcLwolpomG/td/p+AtcQCAD78/G8+tAihhx56aMeOHVxjGQgEzOvpD6YzoIa8jxAyFa333ntvLBa75557XC4XABBCOnfu/Oqrr3bs2JGljNP27q/h0TgepCUlJZWVlU2bNs3KyjojBZaXl5eVlSGEmjRpkp2dDWmKrjMFwzDC4TAv3MYp0ZiuyXAmhp+d4AbD1/gzvuRpmlZSUtKiRYvG6KdfHqxcCk/OWT72fPkz70pS4zR5ZrpkpTMsvdifCZRWpXqSlTHGUv5nx1vEGKS/BmfH6mydkGAlsU5e67rbwxhLH856/tRZIUgxlqzKiUpgzvjGrmCDwUJi6YqiqyqwU3cnQghhLIii6HSaFKGMGbrOP7DTebcYY0RVKSE/twEMACFBcmCHAyPENRemf3PNxZdSweEQMGaMhcvKD2zaVLL7+3BZWSISMVQVYSw6na4Mny87J6ewsGnH9lnNmgGfUhuPawhjyeUSRGvMelbIWHyZe+WOuza++54vJ5saRp39xxAgJAqCJDncbk92dm7LFi26ndfmggsymzatqKiQRVEUhHpOYFgQEpHI/MvHMUKwQ+SDl665qD+wIEQrK7uOHDHxwb/qqmoYRigUys3NrdFjfH51ZWSEy8vXvrn424+XJ44Fs5s3z2lRFCjId/v9otMJDHRVUaoiwbKykr17lVBYjcV+Zg/Dz1vIEMbRY8cmP/yPHqMuoYTg2uxsPwcWzljxUGjY9Kkjb5oeCwYxFk5GLcYY0XUtnoiFgqHSsspDh8r27lv30qsr5j3Wqvt5Lfv3v/CyMWL93ipOaIEQSshtSxb7srMNTdMNIxwOU0qzsrK4z1Z9QAnxZmUtf/qZ/V9vdMsyyLKmaYlEghsAqv8qAIJ1by5e9viC7MLmQ6Zc22nwoIycnFqqB4AAfiwpkUXBJTmPXzodMMZEUTxafhQAcvNyDcM4PXoxAASMUoqFhdNvigWDpz2u9YOFxEIYezMzEUJuv78+L0ROi6IW5x3vvvJ9+zb+972V8+Z/88biCffPadaxAyUEYcwF8zp6kzEmOES33+/0eMDh8EgSFUUEkJGZaRiGo34c5Supy+tFafMcqy6AM0oRxmoi/tLMW0v27Jk4988dB/TnYhYAsJR+HxhDCBFCVE3zeDzUMLzZ2VjADuGndD5vu1vXAcDp9Uo/aVutappTktw+388Y3lPA2l0hb3M8Hvd4vXwk+CvK0u4x++u45IsQwjivdetLZs049/IxW956+/GrJ1929119JoxnlMKp5HQECBgwxjRd5/dRQviCZei6oWmyLJ9y+aeU4lRwUc3yU/tQhLESjT529bVZzZre89EHoiQxyhijnPpYENJrSTH2Op0AwCgFSgVBiMdisstl2hjqyQ7GGBIEahjJj5TCCXvMJPVrPJjqeSWR4CsAJcQ6Ec9izTtjAOB0OhVFkWUZYczbUXdrKCGQ8sbHonjp7beeN/SiJ397PdGN4km/4vNEXc8jAABFUdyBAKTZiADAJcsMIaiPtxBjAIAF4WQk5ldfmH5zTovC3zw6n1uuMMZAEW8mYywWDIXLyhJVVbphZDdtkpGTI/t8ktuNBQELglOWE/G4y+X6CfKNmAqhQ9Xpm7xYW535JQbg8niAUgAQRDH9HT+zsNykAwCCICCECMDBr79e9cxzWBAQFpCAMca8iyWXy5MZyG7evGW3bnmtW2FB4C8dwhgY0xKJFt3Om/biwieu/XWzjh1adu92Cm4xYIxJksRHFxASHI4vX3+jcucuPttpqgoMsIABkgoCbpquVgYhoiTt37S5eccOJ/4C59CnL70cLiu/8YXneTkYY16xWDD4yaKXd3z6adXRCofT6XA6EUJKLEYMw5+XK2dldejTu/OQwXmtWrndHoTRN+9/8NXi/4iyDJSdcqQZAEZI1VQAkGWXlkicO2TwgGsnmzoaXVHevPe+WDCYPo0hAIQQoZRSJooCY0x0OL775NNOgwZZNOgNQSwAwBhjhPZv2frjzp3Dp09TYjFGGaOUEkIJUePxcFn5gU2bP3z0cVeG7/zRo/tPvtrpdvNRx4LAKC3q0nnEzTctnnPfHf9952Ss4h2pqApUNy8KDseWZR9nuN2dhw1VolFBEAGBruuyLHOpCQBhQUguFQiAAUIIi2KbXj2bdezIC+EB1nz8MMa6oq5+YeGVc/+CBcx3VZxVOz799NW77inq0nnYjb8v7NpFlGW3xwMIEV2PBYMl33//7Wef7/5y7WcvveLNzu48ZHC3USM/mP/oOb16tuzWTUsk6iMwYYwjkQilNL9Zs/VL/7t99ZoB1042jRi6qn699L+X3DrTG8hklPDpyyBEVRSn02mqjhFC7foVF/XoBvwF/oUSi8Mpy4VduvS9cuLJphw1Ftv95do1C19c+8abU+b9q6hrl6QKG2MAGPSbKev+85/NH33UbcSI5LpTHQxA13VRFBFGNd58UZJ6XDqq75UTf9rWWlXVaCRKKQ2FQhk+nyCKm5ct82XndOhXDAAmq/Z8tX7hLTMnPfhAt5EjGGOEUtGM4RZFSZYzmzbN6dIlMyODKur2NWs2f7Rs9fMv+HJyxt83RxRFU/A/JapiMUpIICNDicV3fvopQDV9sjcnu9+vrpT8/riqcolUEkTHCd1lGEZCUcAa/XuDEgsBaIqiE4IoxdW0QejYsUpBFEWHo9NFQ7oMG/rpy688MeU3M9/4txQI8DeME+KCMaM3/ve9biNGnNgXjDElkZDdbkMUa2zjEQCj1FBVSG33eG+qmsYolWW5LmUeQhhjTdO8Pq9BDEmSFFX1iOLuL77s0L9fsmIYI4ypYbz2hz+OvefubiNH6Jqm67ogivFoFGPscrsFQWAAiDElEmFer9Pr6T7qkh6Xjqo4dCgeDguCEI1EXC4Xd5Csow8ZY4IoqrEYJQQyMgxdo6TmDoMRQghBlJJ4vKqqyu/3C06n6HSml4wQIobBNwFn3GAPDUwsroNxCEJcUVwuF0rzr5KcTp/PxxgLh0MY4QGTr4mHwq/edfdVCx5Pd33pPHjw2jcWa4mE5HKlv9+MMUVRHJKE4KRSCv85LtXxK7Isa5qmaposy3XXXFEUQRAMw9A13evzAkD5/gNdhw/jQ0QpwwLa/NEy2ePpO3GCoesGIYRSomm6YciyXFVV5Xa7ecjk8VZTChjnFBXxj26PR1VVp9NZ94TKUruKtEad2GCEscAJHYvH/YFA8mr1mwRRhJRp9YyPdeNk9HM6nQlFOfHVxBhnZmYhhGKx2PDpU9VobPuqVQ6Hw+RQTssWgiiW79tvFgUpVkmSVE89ajokSeIBsSe7QVGUiooKrodUVdXlcomiqClKPBTKKSyCpJUaAGDfxm/a9e0DALquY4wJIT6fTxRFp9MZCATi8XiN9vItp2mxxhg7nU5VVc9MlAcCAEikNAsN78PS0MTirwYPOlVq4xYA+DIylEQCYdyxf7+9X65L/8rhdPrz88r27YumDYCmaU6nk+e0ORYKUUYBTmMfLUkSJ02N65qmhUIhXdcRQnl5eV6v1+l0OmUnAFDD0FVV9nkBjr/vSiTi9PoAwOVyqarqdrt5OabnqpFSPlXrEITMOezMcIsBADDKdEIkh6OxPGYb51cZYzW4ZfolAwBCiMf95bduHausTF4yZzuPJxYKUUp5wHQ4HCaEGIahaZqqqoau/4T6cG6ZgUCEkHA4zNPgUEa9Xq8gCDUEFIwxrU4UQXJoiQT/ms9YNZpczx3fz+UWAgCmKIpDEIS0hAYNjAaVsdIajyDViYqiuFwuh8MRjUZNS5wkSTqAO+A3lOREwo0pXPtADaIbeiRcxQAcDgdPB4K4AwJjqN4GwXTwPACKohBCNE3jIlE4HHY4HGZCr+O9JkmSxx2pqMwuLDSNBxl5+Uf37QMAxpjL5QqFQi6Xi9sReKRaPVdqk1s8k8DpNoSbkSSnxD9YP5a1o5GIlYLJLUmSYtUN/giAGgYW0yRZhACA6IYgOVyyyy2IssuVPg1QSsNVVT/5HSWERCIRURQDgQBCKBKJYIzdbneNyYYxJjgcvpyc0r17W3bvBgAGIQih80eNfPzaXwePlGQ2bSJg7PV6Q6GQoig8ELwW6/WpuuWncYvPu0k1XuP5qDV+yArGWJKkiooKLpRwWmiaJgKEy49KHjcAQJqXSCJSFcjLkx0OURSTwm8KCCAzEEiOxOl0KXeJUVU1JyfH5/Ppuh6PxymlPCNcjSWMy9pN27U7sGkzf9YwDMxYQdu25w4a9Nrse/htksMRCAQkSXK73X6//7Sddk5/TeTmUUmSEG5kj3M4G4gFAAght9vNowKTIWK6DgAHt24NFBam35mIRIJHjmS2KMIA3AcGpeEULyjv6zQiAgCltKqqKhKJeDwePqmIoqiqajQS8fv96XceLwEAALoMvWj32rVKPE4Zk2UZIwQAE+6fo6nKk9ddryUSXCQXMP4Je9Xk2JwOtxiliqJIDocgCMAANbaz6llBLEgJ7HxrVlVV5fZ6w2Vl+7/Z1HnYUD5Z8Xli7/oNss/X9JxzfkpTU6uDCVXTorGYy+3OzMw0aWoQAgjl5ObqxEhPEsGNPJBSRJ3Tu5cnM3PtG286nc6kwZExUZKmv/Si7PH8dfglW5Z9DAD8EZa2NTm9Op+SWyy53nFxInnlLEAjy1jVqiKKwFhpSYnL7XY5nf++/y/tLuzboksXTVW5kQsA1i3+T+chgzHGp2uZYZQmolEASEQigiDouh6JRByS5HG7jXhcp4wBQwhRSkPBkD/g1yhTVIVR5pSdwABhpKlaPBRKeL2UUmDM4XL1vXLiR/Me7XnZGG9WljnXipL0m8fmb/zvu+888Lc1Lyzsc83V548cwblYqxnqlKhb3kIIKKUEQHI6k+ajs8OvvoGJhUz7zHHBBSFgTFPVYDAoSlJekyaU0jf/NKd0z57b3lpcWVWFvF5gDGG8Z+PGfd9sGn/fHDhNuyml1B0IfPTo45//+3VNUTDGjFEGIIqioemAji8cPGgbYQSMmbU1HbAopYIgAAJGGQCIkiNYWrr8qafH3nN3qilJhef5Y0Z3vXjYF6+9/vEj8z97/oXiSVedP2a0JMvARbTTnL3q5halVAAAbjJq2OGsAw1MLMYdibhxLf2LnNxcAIiHw5uW/nf5M88KDmn6S4tkn48cO8YXGlXTFv/pvkFTJgcK8k/x6rO0fwEAQFeUCXP+lOH2BENBQkiGL4O7IiVVl6LIqRM8FvR6vZJTopQiQAwYRlg3dF3X3W63pmpl5WVFRUWaqhnE4BZGQRT5Mme+J1zUY5SKTueg3/z6vNGXfrdy1bo3F3+84Knzx1w68NrJss/H36XTihAxuSVJUrrjhqZpx3XryTiztF44ldnR/OMXZSs8oa4YCz/u2PHVW0uUaJQaBtENouuGoWvxRNXRo8d++CFYUurPzxt47eQ+E8brhDA+fyAEAC/dMjOQm3Px9GlwyrCIdGdCM8xQFJlLzs0okk4iSkdjsZxmTZ1cTEmDC4BQygBEF/EautPnwy5DOpU8jlK2ZMHp7D3uiuIrJ+5dv2HNokV/v3RMUc+eE/5wj1SQD9yf9nS4JcsyV/uZ3i/HSXZ8BUj7X92utukvw5nGmSFWja1T8lVO23kBABYEf5MCStmKZ57llmBBFLEgCg7R4XS6/f4OAwd0vXhY03btkgsKIdFEQpAknZDX77jrh+3b7/jvOwBADAOd/LgAQRAoodzAb1YsHo8Tw5AyMxGlmqpC2pLBAASMo9GoYRiuQEBT1fSvzH7XNE3TNCUWi4RCsizrhBz/ttbxY4AwEkSRGIah64IgtO55QZtePfdv2vz6n+59cMQll8++s+/ECQghQ9dPS1gURTGRSFBKub4KY4Gvy5QQ4Gc1EArAKCWQ8smG1BKfXg53w2epzMLmt2fKBHRmiHXs2LFoNMrrxL3XJbc7kUiEQqGj4XA8GORBEL7WrX794vN8HTy+4cIYYyw6nRhjNRb74YcfeB85XS7B6dyzceMXTz6NMb7y0XkRTas8cKCOYeCEjgWDhJCysrJwIqHE45LTGYlE/FlZiTSfmXQYmsYEQXLJEWKkL6DH9ReMIknSKUUeD5NlBSF2wg+fWKwWi6vRaCIWc3A7JiEA4CkqnPDovO/XfLJ64Yufv/b6RbNmFHXrFg+FUPWUhXU0kL91sVgMI1QZqQoGgwk1UXr0qBaPA0Kp5tMjJSVeVVUSiUQiYRhGjbybvBxKqWEYkUjELBZj3LRp0zPCrTNDrKysrMzMzOO1ZkwQRZfLFQgEcv1+w+1OsiF9z83SZIHU3JaRlQWpM05K9+xd9vTD365a3euKsaNvu9UhO+uYq8xfFgQh5nILghjwB0SP25/h8/kygqHQ1uXLw/v2GwZJn6y4P2AsGnV73MikC5d+APhKzZIKClBVVUkovowMjBDlfsC1IklF1rZvn+4jhiuESKKYrDRX8Eajw66dfPHkaz567InFt915xR/v6TX28vrPW4wxwzCCwSDRjWxfRmZmoEx2FeTmEsPgM1ZUdgkCbtqkiTcrKxGPV0Ui+fn5tSZ05QFtgUDg7J2xakS4m5splLIJ1r+6/O356NHHv3zjzQ7FF0781z+69uvHPZhPGbObnNgp9+2mAb+fXxGdzi9fewNi8XMu7KPF4whhAIYQNnRd13W3x6NEomYhGGOMEQCilADCDlE0DIMycDplYhCuqpAkyeRfzToAIIQoM1Y/98KaZ59vP3jgwGuuycjNScaBYYwxJgZxys5Rt848p3fPF2+ZpScSxZOuOnWQCABjjLvuSJKkMdN8iiDNQwsLmPtjQVowCK5tRhRS3wpnOloVrA7/Su8RhFAsGCzbtw8QEgQRi0LyX1FEGHuzs2WPxwwCE2RZdEqTHvpbSVkZ0XWHw8Hd8epeLyiliqbFojGEkdfrhbT9jkOW+/3qyj4TJ6QrwHQA8QRyGIwpxKCESA7JmQorAgDdMKri8ex6m/wMVdu2YuWnr7yy6d33ug4bNuT66zJyc7nSAgkYAIhhtC8uvvGFZxdMuS6refOOA/rXvdvlbmfJyC2u+ADQde14b/+v7ArT20ApEoTtaz55/Z4/8tBTM74QYawrqkN2Tl34vCcQoIypijLshuu3LVu28pnnzps4nsfoORyOZAxZbV3AGEskEqqqerxef8CPTBUUAP+XEqIpCgBQIylmBYNBj9vtcLlqyh+EGLFYOBxu2rSpahiEEKcsC4JANC1aWZnp8QCAqqqMsTp8mhGAIDm6jxp5zoB+Jd/t+OSFhf8aP/HCKycOveF3DpeLEQIOBxftW5x33oQ/3/f6H/40+4N3XT7fycY46SLrcHBimQu30+lM+uf8v9wV1hNqLNahX/ENzz6txmKUUEoMYhBi6KIkvXL7ne/9819Xzv2zoig8WPmyu+58ccbMgp7nZ3brBgDc5Fwrt1RV5a6S3NZrsNo7K3lynShgQQiFQi63W3a7IRlel3abILgZ0w3DIUkGIW6vN7maiCIWRT7budxuTdN0wzjRo8YEn30JIa16dG/Xu9feDV8v/dvftyz7eNAtN+cPGZycmEWREnrBmNEb3n5n9XPPXzJrZq3E4isgZ1WtN/B9oHA2ZcFs4KokvSUlt9uV4fNkZmbk5gQKCnzZ2VfO/fO25Su+X7/e7XaLosgobdOrZ9u+fZfPe1RAiMevCoIgSVK63ynPsqcoitfr9aYYULf6GSFUVVUliqLp4VnrTbquc8fUk73NJ/M7rfljXBfKWJueF8z6z5tdhw1dfNvtBzZ+Y1o/efFDrv/tNx98SA0DY1xj/TJXwFqN2YyBIAgYQFWUpD3x7LAVNjCxWO0uBoRkNWtWfM3VS//6IADvbAQAY+68vWLnrn18GFL6QO7ZRymNRqPRaFSWZb/fXy8PAgYAEI1GGWNcAjsZeK4i7g5fx2314RZP0YwQooQySoffNH3w1Bufn35z1dGjXInKidumV08E6MCWrVBz61xtBawFSR0+SE6nwmtydph1GmnyRNWBsaIoF0+fSgzyyYuLEEI8bXagoOCCCeP/c/9f+CP8UVEUdV0vLy9HCAUCgToWo2pgjIc+67ru9/vruJFSyo9wgnrEINTBLcMwqqqqVFWNxWKRSARhhDBmhPa+elLL83t89OjjvFZJtwiHo6DtOYe3bQMA06c5nVUn1oSlXlHeL6IgOCVJ1fVkiujGnrgaf1Xm3SdgLGA8bs6flj/1TLiszMyoccFVV6pK4tNFL/OcItwjDwBycnLEejt082j9RCKhMlo3qwzD0HW9vmQFgJNwizHGQ77cbndGRoYgCJFIhJu3tXj8ot9dv/Ozz9R4PGn54Tq8vNxIRUVEUcyYC14TU1pPL59/VLk3TspGLgiC0+FQVZUB+1/3xzJfSockMUrP6dWzfb8Ll8x9wPxWkuXxc+5d/uRTwZIShHEoFJJl2ev1cpnjZHE+tf6QrutOVJdGzWTV6e6SasRiAEA8HpdlWUzZtfhJQYQQQMjQ9YJz2ohOZ9nefcmaAQCA0+3RYnFGaSQSiUQi5eXl0Wg0FouFq6Oqqopfj0ajqqalO4mY+0RgkApVarR5qzGJVTMekB+qc/fsfRs37vz8C4QxMFCi0Y7FF547eNBb9/8FALxeLw9MYLXJ8icDf6O9Xh+cfHXjrDpl5OrJwAWy9Dgfqbo920xXBIwJDoc7w58Ih6tVEgEkz1s43i2n8B2trS38zUnOoP+DPu8mq0y1L0KIEuLNzh55yy1v/XkuMQyEESBkEHL5PbMPf7t980fLZFkmhCiKwm1bp+YWT9CViANCdeyXTFbVc66q1SM0nVuSJMXjcbNdkKbS5JNWPBz2ZCWNYPwnE5Go0+uRJMntduXk5AQCgYyMDP8JyMjI8Hq9Ho/H6/V6XK5aGs6S7rhGKl1qo6CR4gq5g3Z11yLg2TUYu/BXEz2ZAS7e8kSSss839g93L5n7QKKqKjMzMxaLmeb6dG7VqliMVFUh4Nv+2itzuqwCAG4z5qaj9GnD5BbXncbjcR7wGA6HZVnmqgTR4Sjds8fQ9bxWrQDATJsWLivz5ea6HI70nDAnA2eMkMr0VL1ywLtFFIRTaEOsRIMTK+Wg7eBu/yeCMQCYcN+9X7z2WvnefZIs80e6jRzR8ryub865HwA8brd5Nh2kcYsmN0q8GAYA4ZTKiudshOqHUgFnVcpYVM35p04c2bW78vBhLGCMMSDETZn8cZNbgUAAAHgAtCzL/Mxixpjkdq98+tmO/ftJLpeZDl5X1ZLv9xR06AAAjnoc0nnK9ONmKgPOLSt063WjoRWkPMGZlNrs1HIHxozSZh079hx7+eL7/5yecHHiX+7f+9X6TR98KLtcjJCqUAgoJYZBDAMBiBjHo1HGGCWEAcMY8xw9LrebpiXSSNdyEEoJpS632wyXSEZYRKOKosRisVqC4hkDgG/ee//BEaNeuXP2zs8+N1SVu5fxxykhDkEAxuLxuNvtzszMzPD5JIeDq6wQxl+8sPDQ1q0jbrkZAEz93Pdr1wmi2KZ7NzhDeii+K8QYi6LID9hu2IFu4DRGCCilOM0Uf5LbEABceuusv48as/a11y+/+SZgjFLqzcqacP+cN/54b5sLzs/My+PBYqYdAwuCKEkIISwKosMRj8cljLlygYfnq9EYACQiESwIXJTWNN3lcmkkAQyQkLT/q/E4I8TrdmuqKgoC1BZXzShpV3xhZkH+Ow/+DQtiYedzO/Tv16Jr18ymTXjTZJerWnsQAoDKwz98/MSCrStX3vjcs76c7KQ7A2MAsOq553tePkYQxTOcGZsxURS5wJdcixsKDUqs4w7adb+XCFFKHbJ8xZ/uefmOuy6aNMmXncVnsi7Dhu78/ItHJl7VddhQNR5XVMXr8ZpLGEKIMpaIRo/98KOqatkFXp77lVLq9vtXv7Bw88cfE13nqx4lFAs8B/PxcYA0DxMkCLFQ6LzhF4++/bYaFSSGkd+69ahbZw39/Q37Nn7z7cpVaxa+qMbiTo87UNAkq1mTQJMm3sxMCkAJMRKJ8gMHSnZ9X3n4cFHnzpOeeKx5l84AwFNqYVFc99aSowcP/u7pJ+GMJ9dLzYg/J2b/p6GhvBtYcszqeT/PP9Zp0KCW3bu/8+CDk//5DzMH82Wz7/RkBqqOHhVE0evwxaJRhyQ5HA5+eKYgYKfLNej3N+Tk5/GeBQBDVUfNmuHCgmHoPD7C0I1UzvckySklSeEMGABQg7h8vi9ee+3HHTtrqyAyNA0AJJer44D+HQf0Z5Qe+/HIkV27juzcVXHoUPn+A1pCYcRgAILDESjI7zx0SMf+/XJbtvyxpMTQNEGWiWEIonjg22+X/OWv1/7rn06Ppz4uWT8NPAVLQ3KrIYjFNQserzeZDbG+jwEgGHTT9Od/fd3369a17dOHEooF5JDlS2bOSL+RAAjVP2LGuFHW9Jb2FxRkZ2VxzyMKTDiVJMOXpGYdOlaVHz3xW4SSUwslBKUEuOzC5tmFzbsMvajuviD8KGvGBFHc/dX6hdNvHjF9auchgy1hVZrH1c/MNXK6aAjyJuJxPj2clloFYcQozS4qHDVrxht/vFdXFCxgrlPgAjv/j1GqJxLlpaVaIkF0vby0VI1GgVIedEB4KkRKecohVVXj0SgYhBLCEyWm/0eq/wcAhqHzUIUaMHSd+7CjVH5AYpag67xWLJVRHBhT4vFYJEJ0AwCww4FFkVL64WOPP3fDjZfMuGXI766nP4NVyWg3Svkek6V3cvXNY424akvzO1h7MgXCAgC4PR5+hTuLQqpNdeyBkzITxvGqqv6Tr9mxes0bf5pzzT/+ztMrCmluSZRSp9OZU1CgaKpOaVZenogxAIiCIDocfC9kZkV3yHI9rYC8cNHhQLhaJfnCmd+mzQfzHgWA7qMuKerS2XFy2yJ/mDt+cZNzIhj8cuWqr95YjDCeuvC5Vj168BM34HQ8OdM1I2IqOUAy1g1jhBFf0BVFUVLGR25fSk8dZakOwkJiEV0/+O22Vrt6qJEIY8yVkfHjdztIKjHaKfU05h+M0msf/sffR1/2xWtvFF91ZbXDKVIHXoZ+/LF0/wFCidvtoZQgQDwfumEYlNF4PE4I9Xq9jlRs6ilBKfEEAj/uOF5hMLVHjPWbdFXzDu2/fP3Nt+7/syCIOS2KmnXsUNC2baBJgdvvlz1eh+zkcbBE19V4PB4Kh0pL92/efGjLtiO7d/mysoZcf12PS0fxzA44zfZQz749nlECoOLw4UNbtxmaBggJDjEWDCnRGNe2cH1hKBTiSStN/3eXy6WntesX5prcpH27LR99XLpzF181+LlcnYYMjiUSuqrWpyU8kiRYWenLyhr317kv33yLHPCfN3JEpLISEHK63ZIsH/r227Uvv7Jvw0ZXhg8hTGm1Yzy4jyCXNVJcrG/9sYDNChuaZhiGqqpVqfxbBV26TOzRo/LIkYObt+xdv37Hl2s3L/uYGiQ1czDz5xFClDKEwJmRkd+ubZfLx3QsvtCTkRGpqmKpueq0IAgCDy3UCHFlZxua/uac+xg/fAAhapAmbdtG43G3KHo9Hj6NqaqabiPnsV88vxxYoz61MJES10cf/yWM+V6PnBA8eSLMXeQPP/yQl5cnCoJDkrZ+vHzRrbdfOfcvvS4fAwCle/etePqZnZ9/0bZXz2FTb2zSri09Icjp5/YOQrzCPAHu0aNHmzdvTtNEGTEtySdjLFFVFQ+F1XhcVxRKCD/E0Olxu/1+b3a26QNtGAYxjDrOU6m7Z0RRPHr0KADk5ORQSvkhidVCJnmYf/WRPTGuEKWdA3/G0fgZuurG4cOH8/PzJUnim6bv1nzy2ux7ug6/GAvCthUr21xw/tCpv2/Stm39U+//ZGiaVlZWVlg9XxdAMlsI1CPilDEGlHHL+k+uBudEZWUlAGRnZ1uxip0RNMQhTdXwU3sBYUwJ6TRo4MzFr7/9wN9Eh+P3zz3TpF1b4PHj/I204iU5ZYVR6qDetHCqWu7h/wgWkKDWVjc2234xMxb/WEPZk34gys8BT1HE3/6TrQ7cVVA6IWtIA4NXki+F/LjX+sxYvHW4foH8ZwRnUeK1+oAbdtI//vwy6+bT8d9KJQlv5B5ACAA8KQ1OPYnS8Nnef2HEgjNtTeOsKi8v//zzz8PhcPPmzfv37/+T/UgbDHXFrtXWwE2bNh08eHDw4ME8sWoDzFu/PGKdQfAuPnjw4JQpU7Zt2+Z2u3Nzc1euXMnd9BCqltHPfIT/ceImq9ZvTyyhPuXU+rHGlXQZ5mRE4XpUhNCzzz776quvrlu3ziSW1fQ624l1So+2nwPuLrxkyZINGzbce++9U6ZMCQaDSU8bhGpkUqBpWeBqfDSdBM37acqDzzQP1Hg2/c70csyfq3Xg00uAtAXuxKQPJqGTUYeS5Ha767j/jKPxw7/qhpkczArwcSopKXG5XAMHDiwoKGjfvj131eIs0XW9oqKCK6m55BuNRisqKlRVTReEOTm44yi/H6eUdsFgsKqqKv1mXrJhGBUVFTypGP+KVHdR58yuEbxKKTXrxo/DrKysNAwj/TA6c5ZCCB07dowfy5DuNMsf59kurBu4s51YgUDACiUe72JFUe6///4PP/zQ6/XOnDmzd+/eq1evBoAxY8YsXbr0m2++GTly5MCBA7ds2QIAH3/88cSJEwcMGDBo0KBhw4Y9/vjj3AanKMrYsWMXLVq0aNGi3r17Dxw4cOzYsZ988smOHTvGjBnTt2/fiy++eM6cOXwU+ZC/++67o0ePHjBgwIABA2677baSkhIAWLFixZAhQ9566y1ewy1btowaNeqaa64Jp4J5HnjggUsuueTIkSMIoV27dk2dOrVfv37FxcWjR49esmQJJyK/bebMmRUVFdOmTbvggguefvppqH5UkSAI8+fPHzBgwIoVK8AyU/TZvhTWHV/6M8ET1GRmZoZCoU6dOmVnZ+fl5RFCtm3b9tRTTx05ciQvL2/gwIHce33//v3l5eWTJk3KyMh4/fXXZ8+enZ+fP2HCBE3Ttm/fvmvXrqysrAkTJhw7duyVV16ZPn262+0+99xzhwwZsnTp0oceeqhFixbXXXcdZ9WUKVO6du06a9asgwcPLliwYN++fW+//XbLli03bdr04Ycfjhs3DgBWrVq1YcMGh8PxzTffDB48OB6Pv/766x6Pp3nz5qWlpddcc83hw4enTJmSm5u7dOnS3/72t6qqXnXVVQBw8ODBlStX7tmz54cffujfv38rHrIBAKkY60cffXT27Nk33njjyJEjLRw5dnaDv2oWga+zt99+e2Zm5ldffcUvRiKR7t27Z2dnP/LII+kV4EsVf2TLli15eXmzZs1ijFVVVXXt2rWwsHDLli38zqlTp3o8njvuuIN/XLduXW5u7vXXX88Y03W9f//+PXr0CIfD/NvHHnvM7/evWbOGMXbRRRedd955PLvEqFGjrr322p49e86ZM4cxtmHDhpycHP733LlzPR7PwoULeQklJSVdu3bt3r07t2PeeuutHo9n/PjxoVDIbOPNN9+cn59/6NChV155xev1zpgxg7fLuu4925fCBtgY8whY/i8AYIzj8XjHjh2nTZsGaSsFIWTjxo0LFy58+OGHX375ZQDgSyGPgW7btm2nTp34lebNm4uiOHToUP54UVGRy+Xiss6hQ4cOHTqUkZGxZMmSBQsWLFq0aN++fYSQrVu3AkBxcfGhQ4f27Nlz7NixzZs3Dx06tFevXqtWrQKAr7/+Wtf1Cy+8EAA2btyYnZ09ZMgQXu2CgoL+/fsfOnRo165dAMC1uLNmzfL7/WYwCKXU4/GsWLFi9uzZ48aN+9e//gXWODWYONuXwgaA6UxiXiGEZGdnO9LCKILB4K233rp8+fKWLVs2bdqUv5TmVo4f52TKgvzAc57QBqWSE/ObY7GYIAjl5eULFizgN0uS1KVLF34aVHFx8bx587Zu3XrkyBFVVfv160cpffvtt3/88cdNmzZlZ2f36tULALgXaFZWFqSyPObl5THGeIgsz5OTk5OT3ihBEKLR6Ny5c1VVNTMJsF+oo98vGukpXwDglVde+fe///3HP/7xrrvukiRpz549/fv3Z6lNVvr9kLbJNz+af3s8HkVRevfu/dJLL5nH6PHzzwCgZ8+eOTk5GzZscDqdLVq0aNWqVSwWQwgtX758y5YtPXv25NKex+NRVTUYDHq9XkIIZypCyPSB4WtcenMwxolE4tZbb5Vl+a677mrbti1fVa2bsc72pbABwLfuNVx4j8fqIAQAhw8f9nq9xcXFnAGrV6+ORqNmHpga2Xv5lRMLBICioqJ27dqtX7/+8OHDfr/f5/P5/X63281nx8zMzD59+qxfv/6rr74aPHgwALRt27Z169ZLly6trKwcMGAAL61Pnz4VFRXLly8HAEmSSktLP//888LCwrZt29baHABgjHm93nHjxs2YMWPcuHHz589///33j6eTsAD2jAU8hVX6lBOPx023OD73dOvWTVGUhx566NChQ9u3b1+3bp3L5eJLD1+D0t3oNE1LL5AxFovFeESyKIqzZ8+eMmXK2LFjJ0+enJWVdeDAgQ0bNjz55JMtWrQAgAEDBnzwwQeyLN95550A4HQ6+/Tp8/TTTwcCgeLiYl7g5MmT33nnndmzZ2/fvr1JkyZLly7dv3//E088wXfQmqbxwxZPbCNXeTz44IPffvvtzTff3KpVq06dOlmkLBXuu+++xh7ZxgRCaOfOnYlE4rLLLsvPzwcAQsi6devatWs3fPhwSGnP27dvDwCbNm369NNPCSHz5s1DCOXk5AwcOJAQsnbt2vT79+7dGw6HzQJVVf366687d+48ZMgQxtg555zTo0eP/fv3r1y5cu3atXv37u3Ro8ell17K50KPx7Nr167WrVvfeOON5tK2b9++Xr16XXvttfxAda/XO3jw4FgstmbNmvXr1+fn599///2/+tWvuJ52586dqqpeccUVgUCApTSl/OL48eMDgYDf72/Tps22bdtisdigQYMsWg3PdreZBkBye1zdegO1eQSEw2FKKT/Yl6UZAWvcX2uBpt3GlGzC4bCu6z6fr0aetxN/vYZFyCwhGo2qqsozZbI0e2WNX69x0aw5T5hrkW3HJla9UGNgThy500IdZsf0X6xjLqlBPi7Cn1ZzrNbj2MQCqIdbgXkdTuKqUDct2EmSbPM/TnwW6mGQrruEU1bSam7ZxLJhCWx1gw1LYBPLhiWwiWXDEtjEsmEJbGLZsAQ2sWxYAptYNiyBTSwblsAmlg1LYBPLhiWwiWXDEtjEsmEJbGLZsAQ2sWxYAptYNiyBTSwblsAmlg1LYBPLhiWwiWXDEtjEsmEJbGLZsAQ2sWxYAptYNiyBTSwblsAmlg1LYBPLhiWwiWXDEtjEsmEJbGLZsAQ2sWxYAptYNiyBTSwblsAmlg1LYBPLhiWwiWXDEtjEsmEJbGLZsAQ2sWxYAptYNiyBTSwblsAmlg1LYBPLhiWwiWXDEtjEsmEJbGLZsAQ2sWxYAptYNiyBTSwblsAmlg1LYBPLhiWwiWXDEtjEsmEJbGLZsAT/B5kiUcnpGIsKAAAAJXRFWHRkYXRlOmNyZWF0ZQAyMDE5LTA5LTE3VDE2OjE1OjQyKzAwOjAweZaGGAAAACV0RVh0ZGF0ZTptb2RpZnkAMjAxOS0wOS0xN1QxNjoxNTo0MiswMDowMAjLPqQAAAAASUVORK5CYII=;" vertex="1" parent="1">
                    <mxGeometry x="382.48" y="450" width="50" height="50" as="geometry"/>
                </mxCell>
                <mxCell id="27" value="" style="shape=image;verticalLabelPosition=bottom;labelBackgroundColor=#ffffff;verticalAlign=top;aspect=fixed;imageAspect=0;image=data:image/png,AAABAAEAICAAAAEAIACoEAAAFgAAACgAAAAgAAAAQAAAAAEAIAAAAAAAABAAAAAAAAAAAAAAAAAAAAAAAAAAAAAAAAAAAAAAAAAAAAAAAAAAAAAAAAAAAAAAAAAAAAAAAAAAAAAAAAAAAAAAAAAAAAAAAAAAAAAAAAAAAAAAAAAAAAAAAAAAAAAAAAAAAAAAAAAAAAAAAAAAAAAAAAAAAAAAAAAAAAAAAAAAAAAAAAAAAAAAAAAAAAAAAAAAAAAAAAAAAAAAAAAAAAAAAAAAAAAAAAAAAAAAAAAAAAAAAAAAAAAAAAAAAAAAAAAAAAAAAAAAAAAAg7hBAIO4QQCDuEEAg7hBAAAAAAAAAAAAAAAAAAAAAAAAAAAAAAAAAAAAAAAAAAAAAAAAAAAAAAAAAAAAAAAAAAAAAAAAAAAAAAAAAAAAAAAAAAAAAAAAAAAAAAAAAAAAAAAAAAAAAAAAAAAAAAAAAAAAAAAAAAAAAAAAAIO4QQCDuEEAg7hBM4O4QTODuEEAg7hBAAAAAAAAAAAAAAAAAAAAAAAAAAAAAAAAAAAAAAAAAAAAAAAAAAAAAAAAAAAAAAAAAAAAAAAAAAAAAAAAAAAAAAAAAAAAAAAAAAAAAAAAAAAAAAAAAAAAAAAAAAAAAAAAAAAAAAAAAAAAg7hBAIO4QQuDuEGxg7hBsYO4QQuDuEEAAAAAAAAAAAAAAAAAAAAAAAAAAAAAAAAAAAAAAAAAAAAAAAAAAAAAAAAAAAAAAAAAAAAAAAAAAAAAAAAAAAAAAAAAAAAAAAAAAAAAAAAAAAAAAAAAAAAAAAAAAAAAAAAAAAAAAIO4QQCDuEEAg7hBWoO4QfeDuEH3g7hBWoO4QQCDuEEAAAAAAAAAAAAAAAAAAAAAAAAAAAAAAAAAAAAAAAAAAAAAAAAAAAAAAAAAAAAAAAAAAAAAAAAAAAAAAAAAAAAAAAAAAAAAAAAAAAAAAAAAAAAAAAAAAAAAAAAAAAAAAAAAg7hBAIO4QRqDuEHJg7hB/4O4Qf+DuEHJg7hBGoO4QQAAAAAAAAAAAAAAAAAAAAAAAAAAAAAAAAAAAAAAAAAAAAAAAAAAAAAAAAAAAAAAAAAAAAAAAAAAAAAAAAAAAAAAAAAAAAAAAAAAAAAAAAAAAAAAAAAAAAAAAAAAAIO4QQCDuEEAg7hBeoO4Qf6DuEH/g7hB/4O4Qf6DuEF6g7hBAIO4QQAAAAAAAAAAAAAAAAAAAAAAAAAAAAAAAAAAAAAAAAAAAAAAAAAAAAAAAAAAAAAAAAAAAAAAAAAAAAAAAAAAAAAAAAAAAAAAAAAAAAAAAAAAAAAAAACDuEEAg7hBAIO4QS6DuEHfg7hB/4O4Qf+DuEH/g7hB/4O4Qd+DuEEug7hBAIO4QQAAAAAAAAAAAAAAAAAAAAAAAAAAAAAAAAAAAAAAAAAAAAAAAAAAAAAAAAAAAAAAAAAAAAAAAAAAAAAAAAAAAAAAAAAAAAAAAAAAAAAAAAAAAIO4QQCDuEEFg7hBmoO4Qf+DuEH/g7hB/4O4Qf+DuEH/g7hB/4O4QZqDuEEFg7hBAAAAAAAAAAAAAAAAAAAAAAAAAAAAAAAAAAAAAAAAAAAAAAAAAAAAAAAAAAAAAAAAAAAAAAAAAAAAAAAAAAAAAAAAAAAAAAAAAAAAAACDuEEAg7hBAIO4QUiDuEHwg7hB/4O4Qf+DuEH/g7hB/4O4Qf+DuEH/g7hB8IO4QUiDuEEAg7hBAAAAAAAAAAAAAAAAAAAAAAAAAAAAAAAAAAAAAAAAAAAAAAAAAAAAAAAAAAAAAAAAAAAAAAAAAAAAAAAAAAAAAAAAAAAAAAAAAIO4QQCDuEEQg7hBuIO4Qf+DuEH/g7hB/4O4Qf+DuEH/g7hB/4O4Qf+DuEH/g7hBuIO4QRCDuEEAAAAAAAAAAAAAAAAAAAAAAAAAAAAAAAAAAAAAAAAAAAAAAAAAAAAAAAAAAAAAAAAAAAAAAAAAAAAAAAAAAAAAAAAAAACDuEEAg7hBAIO4QWaDuEH6g7hB/4O4Qf+DuEH/g7hB/4O4Qf+DuEH/g7hB/4O4Qf+DuEH6g7hBZoO4QQCDuEEAAAAAAAAAAAAAAAAAAAAAAAAAAAAAAAAAAAAAAAAAAAAAAAAAAAAAAAAAAAAAAAAAAAAAAAAAAAAAAAAAAAAAAIO4QQCDuEEgg7hB0oO4Qf+DuEH/g7hB/4O4Qf+DuUH/g7lB/4O4Qf+DuEH/g7hB/4O4Qf+DuEHSg7hBIIO4QQAAAAAAAAAAAAAAAAAAAAAAAAAAAAAAAAAAAAAAAAAAAAAAAAAAAAAAAAAAAAAAAAAAAAAAAAAAAAAAAACDuEEAg7hBAYO4QYaDuEH/g7hB/4O4Qf+DuEH/g7lB/3ykP/98pD//g7lB/4O4Qf+DuEH/g7hB/4O4Qf+DuEGGg7hBAYO4QQAAAAAAAAAAAAAAAAAAAAAAAAAAAAAAAAAAAAAAAAAAAAAAAAAAAAAAAAAAAAAAAAAAAAAAg7hBAIO4QQCDuEE3g7hB5oO4Qf+DuEH/g7hB/4O4Qf+CtEH/amw5/2psOf+CtEH/g7hB/4O4Qf+DuEH/g7hB/4O4QeaDuEE3g7hBAIO4QQAAAAAAAAAAAAAAAAAAAAAAAAAAAAAAAAAAAAAAAAAAAAAAAAAAAAAAAAAAAAAAAACDuEEAg7hBCYO4QaaDuEH/g7hB/4O4Qf+DuEH/g7lB/3eTPf9fTDX/X0w1/3eTPf+DuUH/g7hB/4O4Qf+DuEH/g7hB/4O4QaaDuEEJg7hBAAAAAAAAAAAAAAAAAAAAAAAAAAAAAAAAAAAAAAAAAAAAAAAAAAAAAAAAAAAAg7hBAIO4QQCDuEFSg7hB9IO4Qf+DuEH/g7hB/4O5Qf+ArkD/ZmE4/15INf9eSDX/ZmE4/4CuQP+DuUH/g7hB/4O4Qf+DuEH/g7hB9IO4QVKDuEEAg7hBAAAAAAAAAAAAAAAAAAAAAAAAAAAAAAAAAAAAAAAAAAAAAAAAAAAAAACDuEEAg7hBFYO4QcKDuEH/g7hB/4O4Qf+DuEH/g7lB/3KFPP9eSTX/Xkk1/15JNf9eSTX/coU8/4O5Qf+DuEH/g7hB/4O4Qf+DuEH/g7hBwoO4QRWDuEEAAAAAAAAAAAAAAAAAAAAAAAAAAAAAAAAAAAAAAAAAAAAAAAAAg7hBAIO4QQCDuEFxg7hB/IO4Qf+DuEH/g7hB/4O5Qf99pj//Y1c3/15INf9eSTX/Xkk1/15INf9jVzf/faY//4O5Qf+DuEH/g7hB/4O4Qf+DuEH8g7hBcYO4QQCDuEEAAAAAAAAAAAAAAAAAAAAAAAAAAAAAAAAAAAAAAAAAAACDuEEAg7hBKIO4QdqDuEH/g7hB/4O4Qf+DuEH/g7dB/212Ov9eSDX/Xkk1/15JNf9eSTX/Xkk1/15INf9tdjr/g7dB/4O4Qf+DuEH/g7hB/4O4Qf+DuEHag7hBKIO4QQAAAAAAAAAAAAAAAAAAAAAAAAAAAAAAAAAAAAAAg7hBAIO4QQODuEGSg7hB/4O4Qf+DuEH/g7hB/4O5Qf95mz7/YFA2/15INf9eSTX/Xkk1/15JNf9eSTX/Xkg1/2BQNv95mz7/g7lB/4O4Qf+DuEH/g7hB/4O4Qf+DuEGSg7hBA4O4QQAAAAAAAAAAAAAAAAAAAAAAAAAAAIO4QQCDuEEAg7hBQIO4QeyDuEH/g7hB/4O4Qf+DuEH/gbJA/2lpOf9dRzX/Xkk1/15JNf9eSTX/Xkk1/15JNf9eSTX/XUc1/2lpOf+BskD/g7hB/4O4Qf+DuEH/g7hB/4O4QeyDuEFAg7hBAIO4QQAAAAAAAAAAAAAAAAAAAAAAg7hBAIO4QQ2DuEGxg7hB/4O4Qf+DuEH/g7hB/4O5Qf91jj3/X0s1/15JNf9eSTX/Xkk1/15JNf9eSTX/Xkk1/15JNf9eSTX/X0s1/3WOPf+DuUH/g7hB/4O4Qf+DuEH/g7hB/4O4QbGDuEENg7hBAAAAAAAAAAAAAAAAAIO4QQCDuEEAg7hBXYO4QfiDuEH/g7hB/4O4Qf+DuUH/f6xA/2VdN/9eSDX/Xkk1/15JNf9eSTX/Xko15V5KNeVeSTX/Xkk1/15JNf9eSDX/ZV03/3+sQP+DuUH/g7hB/4O4Qf+DuEH/g7hB+IO4QV2DuEEAg7hBAAAAAAAAAAAAg7hBAIO4QRuDuEHMg7hB/4O4Qf+DuEH/g7hB/4O4Qf9wfzv/Xkk1/15JNf9eSTX/Xkk1/15JNfxfTDVuX0w1bl5JNfxeSTX/Xkk1/15JNf9eSTX/cH87/4O4Qf+DuEH/g7hB/4O4Qf+DuEH/g7hBzIO4QRuDuEEAAAAAAIO4QQCDuEEAg7hBfYO4Qf6DuEH/g7hB/4O4Qf+DuUH/fKI//2JUNv9eSDX/Xkk1/15JNf9eSTX/X0o1wWFQNhNhUDYTX0o1wV5JNf9eSTX/Xkk1/15INf9iVDb/fKI//4O5Qf+DuEH/g7hB/4O4Qf+DuEH+g7hBfYO4QQCDuEEAg7hBAIO4QS+DuEHhg7hB/4O4Qf+DuEH/g7hB/4K1Qf9scTn/Xkg1/15JNf9eSTX/Xkk1/15JNfNfTDVQXkg1AF5INQBfTDVQXkk1815JNf9eSTX/Xkk1/15INf9scTn/grVB/4O4Qf+DuEH/g7hB/4O4Qf+DuEHhg7hBL4O4QQCDuEEHg7hBnIO4Qf+DuEH/g7hB/4O4Qf+EukH/eJY9/2BONv9eSTX/Xkk1/15JNf9eSTX/X0s1pGJUNwhhUTYAYVE2AGJUNwhfSzWkXkk1/15JNf9eSTX/Xkk1/2BONv94lj3/hLpB/4O4Qf+DuEH/g7hB/4O4Qf+DuEGcg7hBB4O4QVeDuEHwg7hB/4O4Qf+DuEH/g7lB/4CvQP9nZDj/Xkg1/15JNf9eSTX/Xkk1/15KNeVgTTY1X0s1AGpmOQBqZjkAX0s1AGBNNjVeSjXlXkk1/15JNf9eSTX/Xkg1/2dkOP+Ar0D/g7lB/4O4Qf+DuEH/g7hB/4O4QfCDuEFXg7hBmoO4QciDuEHGg7hBxoO4QcaEukHGdpE9xl9LNcZeSTXGXkk1xl5JNcZeSTXJX0s1dWhhOQJiUzcAAAAAAAAAAABiUzcAaGE5Al9LNXVeSTXJXkk1xl5JNcZeSTXGX0s1xnaRPcaEukHGg7hBxoO4QcaDuEHGg7hByIO4QZqDuEEOg7hBDYO4QQ2DuEENg7hBDYO5QQ1scjoNXEQ0DV5JNQ1eSTUNXkk1DV5JNQ1gTTYFXkg1AAAAAAAAAAAAAAAAAAAAAABeSDUAYE02BV5JNQ1eSTUNXkk1DV5JNQ1cRDQNbHI5DYO5QQ2DuEENg7hBDYO4QQ2DuEENg7hBDgAAAAAAAAAAAAAAAAAAAAAAAAAAAAAAAAAAAAAAAAAAAAAAAAAAAAAAAAAAAAAAAAAAAAAAAAAAAAAAAAAAAAAAAAAAAAAAAAAAAAAAAAAAAAAAAAAAAAAAAAAAAAAAAAAAAAAAAAAAAAAAAAAAAAAAAAAAAAAAAAAAAAAAAAAA/////////////n////w////8P///+B////gf///wD///4Af//+AH///AA///wAP//4AB//8AAP//AAD//gAAf/4AAH/8AAA//AAAP/gAAB/wAAAP8AAAD+AAAAfgAAAHwAAAA8AAAAOAAYABAAGAAAADwAAAA8AAAAfgAP////8=;" vertex="1" parent="1">
                    <mxGeometry x="432.02" y="455" width="40" height="40" as="geometry"/>
                </mxCell>
                <mxCell id="28" value="" style="shape=image;verticalLabelPosition=bottom;labelBackgroundColor=#ffffff;verticalAlign=top;aspect=fixed;imageAspect=0;image=data:image/png,iVBORw0KGgoAAAANSUhEUgAAAYQAAACCCAMAAABxTU9IAAAAclBMVEX///8Nl00AkT4AkkIAlkoAjjcAkkHo8uwAlEap0La318KgzK/R5djJ4dE1oGDD3syv1LxrtIVKp22Nw58AjTT0+fbj7+eZyKkqnVo/o2aQxKLc6+Hv9vEnnFhhr35FpWpUqnWCvZdxtop6upFarXkAiispbxSeAAAMR0lEQVR4nO2da3eCuhKGJVzEW22t1taqRdv+/7+4FRWTuWVC3euss/a8H0Ug4SHJZDIZBgOTyWQymUwmk8lkMplMJpPJZDKZTCaTyWQymUwmk8lkMplM/0nNj02z2Kz+18X4N/Q5em2aw+gz9bzpZt80m9Gb+KftUKtttJw7VxdFkS9HxMHheD6WS0LrjTtvfGia/Xra44qTl6Z5eU56Vca7Mj/Vrc7L3TzlvFnmzuflVdkIj2+xdFotG/mGb8siu6icgEPbQ1W2l3gZplRhMN+3p7nyOINHCtc+FJetk644mD9dHmf1S70qtD7f3a1qWeGeom9jp3H3SLK6ZBvRyGV6ubF4x/fuhtkyfHc/y/xWFLKVMNouyrqrwkdQ9UN5u1lRFRCQoOHH/XG6H+VJ8997zc53XGqb39uvf1rG/a3OUpRLd3z2eNZ7/8iw9K6xVDfnaemXrvBPfPavWJQb7SXnpf843avqpKH/KC91UGJ/CR5vBfuHqyZVGoRv4Y4Lv35Lv8cNy+J0FTgxgFW/U8jDI+6ou+RoCa6oGmZ/0Jta1LoeKbxd8UH+aQXrGdNSGFqDB+O8FrsNy1I9qyqAGHj4nuG7UzWaS47gJXNNU1gBcu3z3Gnu9wn6+pK0BV5zfH1RDMy2rEENK2/4GIePrJaaU6dtHfTDl4vexpMX9G7mi/glEQPds3yjhs1aM57Ad6Wk2s8wZVS+yLGv8TS4mA9hFKIunhTlH+wwg/tIQxyMU8AMTi1bUZIx2WU7xTgEIThqQMcvVFwVd8fZQyEsqKIVX9ej7wShGAWKQVYqikJDyErZVDxLA+EzdURo68p1JiEEv7ftAeGbqfj1MNVMIhQmZGX7twR5fLxIA2FBVSUqzqJ4JATyrc3uEI5kE5Yo0Ax4090TB6EQDfazFBAI80Mjbmx+IAS2ZDcIyDq63pSlQDPIao1py0HI6lhFFBCojlUjZmx+HIRtzpXsBoEzrTkKDIPMaSZdLIQsf5HPjEMYp5tGV9Fj8+MgEMbpVd04SvdHHAWOgao3EiBkjpkDXxWHkMGq1pzjDlaYHpsfBuGDt9k6CFvuDaIocAyyUuVBESBkpdiUohCQwyL/mU1npA6wxuTY/CgIR2ECebcoJ3oKLINc5+yQIGRO8gpHIcCqCnPhwSFX/PdBENine5Zn1mOHzu3OX+CCHAPdpDECoXgXzoxBgM9VbliwGNTY/BgIU8JR4xXS++dOR4FnkCuXNkQIWd3wZ0YgIPMi9D1DzeHfCU/oQyC8iQzCCa6Kwt8ZRCBk1YE9MwIBOSwi078G/J9wwgG3hddW9BBWvGHUKvQyKCg8gEEMQlayy1QyhDfUECKeTeTqw2PzI3xHgmF0qW/49yiFRzCIQshKbqFNhrBHDSG26r0G18NP8gEQJMPoUl1wQoSCwEC/TByHUNQMURHCDC1u8P1aV1/QUaCx+e8Q1tHpI3J6shTqL4mBcmHsIgQB3bNmLEsRwgfseVn/9F3InwPH5j9DGKNnlsPqYs8zT2Fx5JimMUAQ6jVqsDm9xCNBQA6LShM1Aj0FcBj5q3WEHetuBO0Hwv3PUij4A0kMEAQ3RcZi5siuRIIAHRY6Fwqa3oGx+Y8Q8HJmvkdGHLUGw1JglMoAQ5gNNqiRlZRXU4CAHBaRcKLukmURqA4ni7PgsG89qyCgdZqzo1gDIZFCMgMKwmCPeiTKlSNAgBQlh0Wg769FoKdgkr0Njn14ZdJAgBORU/NcKSEM3hMopDMgIeB3hrowD2GT5LB4hBQQ8HKmO1PUQUig0IMBDWGF1jyIJR4WAoqikZwfj1EcAvbaXZbRlRDUFPowoCGgmCJqiYeF8I3Mvj6h0kmKQsDLmVdrQwtBSaEXAwYCYVGjKBgOAvKQ1ZElugcoBmGLvHa31qmGoKLQjwEHgehCYZgtBwG54enQvIcqBgF1r11gnB7C4ClKoScDFgIRGwXcoAwE7LBQBzT3VwQCenxFfXsxEiBE20JfBjwEvEJc5MErzUBADgscOzObbF5uWk+iuk+2gyVRvzAyhBdkcrvOvE2BEGkLvRkIELZoWAhNJBoCclg44Asf7p3L8/qmPKr7no/prx8c8KtdT8BeO2/ymQRBpNCfgQBhMEOjWWAi0RCgaQRXSEdlqg/g7vHo57YYo2r4OzfSIAy+2CWhYtebgQSBcNQ6zw9HQ4CrAnUYn89FH/LyHNq9IGCvXeCQTITABzgXish5ThIEykS6H2bGBFjK2r8bNhVj8j0efSAMkdcudEilQdgLqy+cy18hEQJlInVLPAwEOCjkvhP7kBwp73s8+kDAhlERmBdJECQGf6EgQ1gRJtLtGDdPgAGo/jSBDDgXK+Z3HT0gIK+dZxi1SoEgM/gDBRkC4b/oTCQOApwo+Esz6Q3Bf2TpEA7oscGNFwkQYgwUQdSMIhBwPFBnIrG+I/j2ea6j1A1sYaxSMgTCsoD7+PQQ4gx6t4UYBGKJ5xoozEKA0S6eE/UpsTsKPR6pEGbYDYkC0NQQNAz6UohCoJZ42v/w6wkwAPI+uP5tU3MiBLxpkegutBB0DHr2SHEIxGjamkg8hBWM7u2Mwlj8GxAI0UiEgL12GXYlKiH8qDvSPhQUEFYVaSIlrDHfl5inZQIFmCQgDQJ2MThikVYHQc+gFwUFBMpE+kiLtrhHEE0Lp8WA9mEnQcBeO3JHqgpCCoM+FDQQqKCpY1LckT9je/4qS3q/DrgHCtFIgYC9dvTebA2ENAY9KKggEPa2m+CIJe8E6OgKI1HpjFPhhv1oLKoE4YtwPtKR+QoIPAOuTadS0EEg/BduD7scHwJc09VkmwAOWByJrIaQ4UAhznaMQ2AZFBm7ypNIQQkBL/GgH+So7Pjm9M/w5SVCNAAEb6ECQiAeGLPGGoXQ8AxW/PpCGgUtBLzEAxVCGIL+IJ6zBEzkCGogINhb845CoAyjVjEIQjs4Y2W3OyRR0EKIbPXK0E4dmGMnFgD2HI4IVIiGOiobacmGYUYgRBgIa20pFNQQwnxkhOCeNc1+TP7vjlin6g3B8THhMoQoA6ktSLsuQ+khECZSeCYYSPkZGyUQFk/uKekLQcpNIEJQMHhIj5QAgc4QdD8TWjPA3SGGx8NFyJwaR3tCEJ1qEoRXdg9IMMz/nUIKBMJE8s+EEOCMTdooAkZlOqthPwisYdRKgID9x8wVWQrM3AQpCYJoIuHcFnDGVrFPA+ROLQryX/0gsIZRKx4CimLrSoeoshQ0GdQGiRBEEwlDQDM2LtMDGpXp4aMXhEiKDx4C5/ClWhZLQRcLnQZBMpGIfEewhu5IhtiN4OjBZFDsA0EwjMgidhC4NJY12btxFOQ0BjclQhBMJALCEO0op4PsYGgAU4YeEGJJm3gIzIBAM+ApxD0Fg3QIvIlE5cBLzop6VvGFL9QqHULNXaoTB2FOQ+AYsBRU4dDJEFgTiYIAO3uV2NznyRBkw6gVBwHtdGnFM+AoiIlybkqHwJlIjmp4SSnjrxVle5BkCGK+pos4CGTQqcSAo9AnJacicR6T7JTeC5Ic7pWV7JML8cchaDKvAwhdV0imD440LJJCn+S0ZJ5feA5JgU6cwPStvIQM3zwEMkMHufsaCkK4za4JCDEGNIU+EFR7m1DKuox30PHB5LSkbDBBWf3JBDLDMi4PARQwHbqpDMpSk9W7+KMhKGi6IxAnrRpHqFX0MPDXU2KmZu4yl9v6dVz6flZss5UqBrB4HVmU4kPD4PTKodNUE4UQuSoRyEkNXkfnypiWs1xMTOz3baEhC6fyRan9Dk4Q23b3l6xABXUMTrWFHzRQ7aMf+iEotS4RyEkbEEDEL5vANTZRfN7+Vv43dUJD1vu+z0lVps8hsLhTqKu7hReGa7hGuwX1O2haWkfq8J4atorb1Z2mOy+lbM0zSJqxxT758NahR2/69OP8SafzNWqnbc8XHZfnrEfnb2stfCvba+z1Us7TG2jsbQjTL+ys9mV1dh64mJ8FaN6UrvU6VOVC9FTm6k98/cZe4Gl9DgcsyC9IfY6OH65yi++kz5SdNFz/1FX28woMw9flBWpe7tO+GvZdVi2HumwSzto+b9abSfpH3Vaz0Wa93oxjW+bmWikcLZN354pD2lPpqc/v3enFWIzSb/a8P714Bfpym8lkMplMJpPJZDKZTCaTyWQymUwmk8lkMplMJpPJZDKZTCaTyWT6v9c/JfW2yH0PjtoAAAAASUVORK5CYII=;" vertex="1" parent="1">
                    <mxGeometry x="382.48" y="495" width="89.54" height="30" as="geometry"/>
                </mxCell>
                <mxCell id="29" value="&lt;font color=&quot;#000000&quot;&gt;ALB&lt;/font&gt;" style="outlineConnect=0;dashed=0;verticalLabelPosition=bottom;verticalAlign=top;align=center;html=1;shape=mxgraph.aws3.application_load_balancer;fillColor=#F58534;gradientColor=none;fontColor=#FF3333;" vertex="1" parent="1">
                    <mxGeometry x="277" y="230" width="68" height="72" as="geometry"/>
                </mxCell>
                <mxCell id="31" value="VPC" style="outlineConnect=0;gradientColor=none;html=1;whiteSpace=wrap;fontSize=12;fontStyle=0;shape=mxgraph.aws4.group;grIcon=mxgraph.aws4.group_vpc;strokeColor=#879196;fillColor=none;verticalAlign=top;align=left;spacingLeft=30;fontColor=#879196;dashed=0;" vertex="1" parent="1">
                    <mxGeometry x="38.07" y="180" width="563.87" height="537.5" as="geometry"/>
                </mxCell>
                <mxCell id="34" value="" style="endArrow=classic;html=1;fontColor=#FF3333;exitX=1;exitY=0.5;exitDx=0;exitDy=0;exitPerimeter=0;" edge="1" parent="1" source="8" target="18">
                    <mxGeometry width="50" height="50" relative="1" as="geometry">
                        <mxPoint x="360" y="770" as="sourcePoint"/>
                        <mxPoint x="428" y="550" as="targetPoint"/>
                        <Array as="points">
                            <mxPoint x="430" y="755"/>
                        </Array>
                    </mxGeometry>
                </mxCell>
                <mxCell id="35" value="" style="endArrow=classic;html=1;fontColor=#FF3333;exitX=0;exitY=0.5;exitDx=0;exitDy=0;exitPerimeter=0;" edge="1" parent="1" source="8" target="16">
                    <mxGeometry width="50" height="50" relative="1" as="geometry">
                        <mxPoint x="280" y="755" as="sourcePoint"/>
                        <mxPoint x="175.0999999999999" y="540" as="targetPoint"/>
                        <Array as="points">
                            <mxPoint x="185" y="755"/>
                        </Array>
                    </mxGeometry>
                </mxCell>
                <mxCell id="36" value="" style="endArrow=classic;html=1;fontColor=#FF3333;" edge="1" parent="1" target="18">
                    <mxGeometry width="50" height="50" relative="1" as="geometry">
                        <mxPoint x="300" y="340" as="sourcePoint"/>
                        <mxPoint x="430" y="316" as="targetPoint"/>
                        <Array as="points">
                            <mxPoint x="427" y="340"/>
                        </Array>
                    </mxGeometry>
                </mxCell>
                <mxCell id="38" value="" style="endArrow=classic;html=1;fontColor=#FF3333;" edge="1" parent="1">
                    <mxGeometry width="50" height="50" relative="1" as="geometry">
                        <mxPoint x="300" y="340" as="sourcePoint"/>
                        <mxPoint x="197.70853658536595" y="420" as="targetPoint"/>
                        <Array as="points">
                            <mxPoint x="198" y="340"/>
                        </Array>
                    </mxGeometry>
                </mxCell>
                <mxCell id="39" value="" style="endArrow=none;html=1;fontColor=#FF3333;entryX=0.5;entryY=1;entryDx=0;entryDy=0;entryPerimeter=0;" edge="1" parent="1" target="29">
                    <mxGeometry width="50" height="50" relative="1" as="geometry">
                        <mxPoint x="311" y="340" as="sourcePoint"/>
                        <mxPoint x="340" y="320" as="targetPoint"/>
                    </mxGeometry>
                </mxCell>
                <mxCell id="41" value="" style="points=[[0,0,0],[0.25,0,0],[0.5,0,0],[0.75,0,0],[1,0,0],[0,1,0],[0.25,1,0],[0.5,1,0],[0.75,1,0],[1,1,0],[0,0.25,0],[0,0.5,0],[0,0.75,0],[1,0.25,0],[1,0.5,0],[1,0.75,0]];outlineConnect=0;fontColor=#232F3E;gradientColor=#945DF2;gradientDirection=north;fillColor=#5A30B5;strokeColor=#ffffff;dashed=0;verticalLabelPosition=bottom;verticalAlign=top;align=center;html=1;fontSize=12;fontStyle=0;aspect=fixed;shape=mxgraph.aws4.resourceIcon;resIcon=mxgraph.aws4.route_53;" vertex="1" parent="1">
                    <mxGeometry x="272" y="140" width="78" height="78" as="geometry"/>
                </mxCell>
                <mxCell id="44" value="&lt;font&gt;Internet&lt;/font&gt;" style="aspect=fixed;perimeter=ellipsePerimeter;html=1;align=center;shadow=0;dashed=0;spacingTop=3;image;image=img/lib/active_directory/internet_cloud.svg;fillColor=none;fontColor=#000000;" vertex="1" parent="1">
                    <mxGeometry x="279.25" y="30" width="63.49" height="40" as="geometry"/>
                </mxCell>
                <mxCell id="45" value="" style="endArrow=classic;html=1;fontColor=#FF3333;entryX=0.5;entryY=0;entryDx=0;entryDy=0;entryPerimeter=0;" edge="1" parent="1" source="44" target="41">
                    <mxGeometry width="50" height="50" relative="1" as="geometry">
                        <mxPoint x="360" y="100" as="sourcePoint"/>
                        <mxPoint x="410" y="50" as="targetPoint"/>
                    </mxGeometry>
                </mxCell>
                <mxCell id="46" value="" style="points=[[0,0,0],[0.25,0,0],[0.5,0,0],[0.75,0,0],[1,0,0],[0,1,0],[0.25,1,0],[0.5,1,0],[0.75,1,0],[1,1,0],[0,0.25,0],[0,0.5,0],[0,0.75,0],[1,0.25,0],[1,0.5,0],[1,0.75,0]];outlineConnect=0;fontColor=#232F3E;gradientColor=#F78E04;gradientDirection=north;fillColor=#D05C17;strokeColor=#ffffff;dashed=0;verticalLabelPosition=bottom;verticalAlign=top;align=center;html=1;fontSize=12;fontStyle=0;aspect=fixed;shape=mxgraph.aws4.resourceIcon;resIcon=mxgraph.aws4.ecs;" vertex="1" parent="1">
                    <mxGeometry x="80" y="370" width="30" height="30" as="geometry"/>
                </mxCell>
                <mxCell id="53" value="" style="endArrow=classic;html=1;fontColor=#000000;entryX=0.5;entryY=0;entryDx=0;entryDy=0;entryPerimeter=0;" edge="1" parent="1" source="16" target="10">
                    <mxGeometry width="50" height="50" relative="1" as="geometry">
                        <mxPoint x="227" y="585" as="sourcePoint"/>
                        <mxPoint x="277" y="535" as="targetPoint"/>
                        <Array as="points">
                            <mxPoint x="187" y="590"/>
                            <mxPoint x="230" y="590"/>
                            <mxPoint x="320" y="590"/>
                        </Array>
                    </mxGeometry>
                </mxCell>
                <mxCell id="54" value="" style="endArrow=classic;html=1;fontColor=#000000;" edge="1" parent="1" source="18">
                    <mxGeometry width="50" height="50" relative="1" as="geometry">
                        <mxPoint x="430" y="550" as="sourcePoint"/>
                        <mxPoint x="320" y="630" as="targetPoint"/>
                        <Array as="points">
                            <mxPoint x="430" y="570"/>
                            <mxPoint x="430" y="590"/>
                            <mxPoint x="320" y="590"/>
                        </Array>
                    </mxGeometry>
                </mxCell>
            </root>
        </mxGraphModel>
    </diagram>
</mxfile>